<svg xmlns="http://www.w3.org/2000/svg" width="1200" height="420" viewBox="0 0 1200 420"><rect width="100%" height="100%" fill="#101113"/><text x="64" y="28" fill="#f3f4f6" font-size="22" font-family="system-ui, sans-serif">INTARIAN_PEPPER_ROOT Position Bands</text><text x="64" y="46" fill="#9ca3af" font-size="13" font-family="system-ui, sans-serif">2 persisted session traces • overlays show first 2 sessions</text><rect x="64" y="56" width="1112" height="328" fill="#141517" stroke="#2c2e33"/><line x1="64" y1="384.00" x2="1176" y2="384.00" stroke="#25262b" stroke-width="1"/><text x="54" y="388.00" fill="#9ca3af" font-size="12" text-anchor="end" font-family="system-ui, sans-serif">0.00</text><line x1="64" y1="220.00" x2="1176" y2="220.00" stroke="#25262b" stroke-width="1"/><text x="54" y="224.00" fill="#9ca3af" font-size="12" text-anchor="end" font-family="system-ui, sans-serif">40.00</text><line x1="64" y1="56.00" x2="1176" y2="56.00" stroke="#25262b" stroke-width="1"/><text x="54" y="60.00" fill="#9ca3af" font-size="12" text-anchor="end" font-family="system-ui, sans-serif">80.00</text><line x1="64.00" y1="56" x2="64.00" y2="384" stroke="#25262b" stroke-width="1"/><text x="64.00" y="402" fill="#9ca3af" font-size="12" text-anchor="middle" font-family="system-ui, sans-serif">0</text><line x1="621.17" y1="56" x2="621.17" y2="384" stroke="#25262b" stroke-width="1"/><text x="621.17" y="402" fill="#9ca3af" font-size="12" text-anchor="middle" font-family="system-ui, sans-serif">501000</text><line x1="1176.00" y1="56" x2="1176.00" y2="384" stroke="#25262b" stroke-width="1"/><text x="1176.00" y="402" fill="#9ca3af" font-size="12" text-anchor="middle" font-family="system-ui, sans-serif">999900</text><polygon points="64.00,384.00 66.22,58.05 67.67,58.05 69.89,69.74 71.45,69.74 73.68,69.74 75.12,68.51 77.35,56.82 78.79,56.82 81.02,56.00 82.57,57.03 84.80,57.03 86.24,56.00 88.47,56.00 89.91,56.00 92.14,56.00 93.69,56.00 95.92,57.84 97.36,85.11 99.59,64.41 101.14,69.33 103.37,61.53 104.81,56.41 107.04,56.00 108.48,56.00 110.71,56.00 112.27,56.00 114.49,65.84 115.94,65.84 118.16,65.02 119.61,68.92 121.83,68.92 123.39,56.00 125.61,56.00 127.06,56.00 129.28,56.00 130.73,56.00 132.95,56.00 134.51,56.00 136.73,56.00 138.18,57.64 140.40,57.64 141.85,57.64 144.07,57.64 145.63,73.22 147.85,89.01 149.30,89.01 151.52,72.81 152.97,68.51 155.19,73.63 156.75,58.05 158.97,85.32 160.42,57.43 162.64,76.91 164.20,76.91 166.43,62.15 167.87,60.51 170.10,56.20 171.54,56.20 173.77,60.92 175.32,57.23 177.55,68.92 178.99,57.23 181.22,57.23 182.66,57.23 184.89,76.70 186.44,81.83 188.67,65.02 190.11,65.02 192.34,81.01 193.78,61.53 196.01,60.30 197.56,57.23 199.79,56.00 201.23,56.00 203.46,56.00 204.90,56.00 207.13,56.61 208.69,56.61 210.91,57.43 212.36,58.05 214.58,57.23 216.03,57.23 218.25,65.84 219.81,65.84 222.03,65.84 223.48,93.10 225.70,73.63 227.15,61.95 229.48,58.05 230.93,58.05 233.15,57.84 234.60,77.32 236.82,61.12 238.38,57.23 240.60,57.23 242.05,57.23 244.27,57.23 245.72,56.41 247.94,56.41 249.50,56.41 251.72,56.41 253.17,56.41 255.39,56.41 256.84,56.00 259.06,57.84 260.62,56.20 262.85,56.20 264.29,72.81 266.52,65.64 267.96,65.64 270.19,57.84 271.74,56.41 273.97,56.00 275.41,56.00 277.64,68.92 279.08,70.97 281.31,68.51 282.86,60.51 285.09,56.20 286.53,56.82 288.76,56.82 290.20,56.82 292.43,56.82 293.98,72.40 296.21,61.33 297.65,56.00 299.88,56.61 301.44,56.61 303.66,85.11 305.11,85.11 307.33,57.84 308.78,61.33 311.00,57.43 312.56,56.20 314.78,56.20 316.23,57.23 318.45,57.23 319.90,57.23 322.12,69.12 323.68,69.12 325.90,81.83 327.35,68.92 329.57,68.92 331.02,68.92 333.24,64.41 334.80,64.41 337.02,89.21 338.47,89.21 340.69,65.84 342.14,58.66 344.36,56.00 345.92,56.00 348.14,56.00 349.59,56.00 351.81,56.00 353.26,56.00 355.48,57.64 357.04,57.64 359.27,57.64 360.71,77.11 362.94,56.82 364.49,56.00 366.72,56.00 368.16,56.00 370.39,57.43 371.83,56.00 374.06,56.61 375.61,56.61 377.84,56.82 379.28,56.00 381.51,56.00 382.95,68.71 385.18,56.82 386.73,56.20 388.96,56.20 390.40,56.00 392.63,56.00 394.07,56.00 396.30,58.05 397.86,57.23 400.08,56.00 401.53,56.00 403.75,56.61 405.20,56.61 407.42,56.00 408.98,56.00 411.20,58.05 412.65,57.43 414.87,56.00 416.32,57.03 418.54,56.00 420.10,80.60 422.32,57.23 423.77,57.23 425.99,58.87 427.55,57.03 429.77,56.61 431.22,57.64 433.44,57.64 435.67,57.64 437.11,57.64 439.34,57.64 440.89,57.64 443.12,57.64 444.56,56.61 446.79,56.61 448.23,56.61 450.46,56.82 452.02,61.33 454.24,73.01 455.69,56.00 457.91,57.23 459.36,57.23 461.58,57.23 463.14,72.40 465.36,72.40 466.81,56.82 469.03,93.51 470.48,65.64 472.70,56.00 474.26,56.00 476.48,56.00 477.93,56.00 480.15,56.61 481.60,56.61 483.82,61.74 485.38,57.84 487.60,57.84 489.05,57.84 491.27,58.66 492.83,56.20 495.05,56.20 496.50,56.20 498.72,56.20 500.17,56.00 502.39,56.82 503.95,56.00 506.18,56.00 507.62,56.00 509.85,56.00 511.29,56.00 513.52,56.00 515.07,56.00 517.30,56.00 518.74,56.61 520.97,57.03 522.41,57.03 524.64,56.00 526.19,56.00 528.42,56.00 529.86,56.00 532.09,56.00 533.53,56.00 535.76,56.00 537.31,56.00 539.54,56.82 540.98,56.82 543.21,56.82 544.65,57.64 546.88,77.11 548.44,77.11 550.66,77.11 552.11,77.11 554.33,57.03 555.89,58.25 558.11,56.61 559.56,56.61 561.78,56.61 563.23,68.51 565.45,60.51 567.01,56.20 569.23,56.20 570.68,56.20 572.90,60.10 574.35,61.33 576.57,56.82 578.13,56.82 580.35,56.82 581.80,56.00 584.02,56.00 585.47,56.61 587.69,57.43 589.25,57.43 591.47,68.30 592.92,58.25 595.14,56.82 596.59,56.82 598.81,57.03 600.37,73.22 602.60,56.82 604.04,56.82 606.27,56.61 607.71,57.84 609.94,56.82 611.49,57.84 613.72,57.84 615.16,56.61 617.39,56.61 618.83,56.61 621.17,56.00 622.61,56.00 624.84,56.00 626.28,56.00 628.51,56.00 630.06,56.00 632.29,56.20 633.73,56.00 635.96,56.00 637.40,56.00 639.63,57.03 641.19,57.64 643.41,56.00 644.86,56.61 647.08,56.00 648.53,56.00 650.75,56.00 652.31,56.00 654.53,56.00 655.98,56.00 658.20,57.03 659.65,57.03 661.87,57.03 663.43,56.00 665.65,57.23 667.10,57.84 669.32,57.84 670.77,56.61 672.99,57.43 674.55,57.43 676.77,57.43 678.22,57.43 680.44,57.43 681.89,57.23 684.11,57.43 685.67,56.00 687.89,56.00 689.34,56.00 691.56,57.43 693.12,56.00 695.35,56.00 696.79,56.00 699.02,56.00 700.46,57.23 702.69,56.20 704.24,56.20 706.47,56.20 707.91,56.20 710.14,57.03 711.58,57.03 713.81,57.03 715.36,57.03 717.59,56.41 719.03,65.22 721.26,56.41 722.70,56.41 724.93,56.41 726.48,56.00 728.71,56.00 730.15,56.00 732.38,57.43 733.82,57.43 736.05,57.43 737.61,57.43 739.83,57.43 741.28,56.61 743.50,56.00 744.95,56.00 747.17,56.00 748.73,56.00 750.95,56.00 752.40,56.00 754.62,56.82 756.18,56.00 758.40,56.61 759.85,56.00 762.07,56.00 763.52,56.00 765.74,57.03 767.30,57.03 769.52,56.00 770.97,56.00 773.19,56.00 774.64,56.00 776.86,56.00 778.42,56.00 780.64,80.80 782.09,85.32 784.31,60.30 785.76,56.41 787.98,56.41 789.54,56.00 791.77,56.00 793.21,56.00 795.44,57.23 796.88,56.20 799.11,57.03 800.66,57.03 802.89,76.70 804.33,68.71 806.56,56.82 808.78,56.82 810.23,73.01 812.45,73.01 814.01,80.80 816.23,68.30 817.68,68.30 819.90,56.61 821.46,56.61 823.68,56.61 825.13,56.61 827.35,56.61 828.80,56.61 831.02,56.00 832.58,56.00 834.80,56.00 836.25,56.00 838.47,56.00 839.92,56.00 842.14,56.00 843.70,56.00 845.93,56.00 847.37,56.00 849.60,56.00 851.04,57.43 853.27,85.72 854.82,61.33 857.05,61.33 858.49,60.72 860.72,72.40 862.16,56.82 864.39,56.00 865.94,56.82 868.17,56.00 869.61,56.00 871.84,56.00 873.28,85.11 875.51,93.10 877.06,93.10 879.29,93.10 880.73,86.14 882.96,60.72 884.52,76.91 886.74,56.20 888.19,60.72 890.41,56.00 891.86,56.00 894.08,57.03 895.64,57.03 897.86,57.03 899.31,56.00 901.53,57.84 902.98,57.23 905.20,76.70 906.76,56.41 908.98,56.41 910.43,56.00 912.65,57.03 914.10,57.03 916.32,57.64 917.88,69.33 920.10,69.33 921.55,64.41 923.77,56.82 925.22,56.82 927.44,57.64 929.00,56.00 931.22,56.00 932.67,56.82 934.89,56.00 936.34,56.00 938.56,56.00 940.12,56.61 942.35,56.61 943.79,57.03 946.02,76.50 947.57,56.20 949.80,56.00 951.24,56.00 953.47,56.00 954.91,56.00 957.14,58.05 958.69,57.23 960.92,56.41 962.36,56.00 964.59,72.40 966.03,72.40 968.26,56.00 969.81,56.00 972.04,56.00 973.48,56.00 975.71,56.00 977.15,57.23 979.38,57.23 980.94,68.92 983.16,56.00 984.61,57.43 986.83,58.46 988.28,56.00 990.50,56.61 992.06,68.30 994.28,56.00 995.73,56.00 997.95,56.00 999.40,56.00 1001.62,57.03 1003.18,57.43 1005.40,56.00 1006.85,56.00 1009.07,57.23 1010.52,56.00 1012.85,56.82 1014.30,56.82 1016.52,57.23 1017.97,57.43 1020.19,56.82 1021.75,56.82 1023.97,56.82 1025.42,57.64 1027.64,58.87 1029.09,56.82 1031.31,56.00 1032.87,57.03 1035.10,64.82 1036.54,57.03 1038.77,56.61 1040.21,56.61 1042.44,56.61 1043.99,59.48 1046.22,57.64 1047.66,57.64 1049.89,56.20 1051.33,56.20 1053.56,56.00 1055.11,56.00 1057.34,57.43 1058.78,57.43 1061.01,57.84 1062.45,81.22 1064.68,57.84 1066.23,58.05 1068.46,58.05 1069.90,56.00 1072.13,57.03 1073.57,56.00 1075.80,56.82 1077.36,60.51 1079.58,60.51 1081.03,68.92 1083.25,56.61 1084.81,69.94 1087.03,56.61 1088.48,56.61 1090.70,73.42 1092.15,73.42 1094.37,65.43 1095.93,57.64 1098.15,81.01 1099.60,81.01 1101.82,56.41 1103.27,56.41 1105.49,57.43 1107.05,56.00 1109.27,56.00 1110.72,56.00 1112.94,56.00 1114.39,57.03 1116.61,57.03 1118.17,56.61 1120.39,57.64 1121.84,56.82 1124.06,56.82 1125.51,56.82 1127.73,57.23 1129.29,58.05 1131.52,58.05 1132.96,56.00 1135.19,56.00 1136.63,56.00 1138.86,57.03 1140.41,56.00 1142.64,56.82 1144.08,56.82 1146.31,56.82 1147.86,56.00 1150.09,56.00 1151.53,56.82 1153.76,56.82 1155.20,56.82 1157.43,58.05 1158.98,58.05 1161.21,57.43 1162.65,56.41 1164.88,56.00 1166.32,56.00 1168.55,57.03 1170.11,76.70 1172.33,76.70 1173.78,57.84 1176.00,57.84 1176.00,91.05 1173.78,91.05 1172.33,80.40 1170.11,80.40 1168.55,75.47 1166.32,56.00 1164.88,56.00 1162.65,63.79 1161.21,83.27 1158.98,94.95 1157.43,94.95 1155.20,71.58 1153.76,71.58 1151.53,71.58 1150.09,56.00 1147.86,56.00 1146.31,71.58 1144.08,71.58 1142.64,71.58 1140.41,56.00 1138.86,75.47 1136.63,56.00 1135.19,56.00 1132.96,56.00 1131.52,94.95 1129.29,94.95 1127.73,79.37 1125.51,71.58 1124.06,71.58 1121.84,71.58 1120.39,87.16 1118.17,67.69 1116.61,75.47 1114.39,75.47 1112.94,56.00 1110.72,56.00 1109.27,56.00 1107.05,56.00 1105.49,83.27 1103.27,63.79 1101.82,63.79 1099.60,88.39 1098.15,88.39 1095.93,87.16 1094.37,87.57 1092.15,91.88 1090.70,91.88 1088.48,67.69 1087.03,67.69 1084.81,99.46 1083.25,67.69 1081.03,79.99 1079.58,67.89 1077.36,67.89 1075.80,71.58 1073.57,56.00 1072.13,75.47 1069.90,56.00 1068.46,94.95 1066.23,94.95 1064.68,91.05 1062.45,92.28 1061.01,91.05 1058.78,83.27 1057.34,83.27 1055.11,56.00 1053.56,56.00 1051.33,59.90 1049.89,59.90 1047.66,87.16 1046.22,87.16 1043.99,122.22 1042.44,67.69 1040.21,67.69 1038.77,67.69 1036.54,75.47 1035.10,75.88 1032.87,75.47 1031.31,56.00 1029.09,71.58 1027.64,110.53 1025.42,87.16 1023.97,71.58 1021.75,71.58 1020.19,71.58 1017.97,83.27 1016.52,79.37 1014.30,71.58 1012.85,71.58 1010.52,56.00 1009.07,79.37 1006.85,56.00 1005.40,56.00 1003.18,83.27 1001.62,75.47 999.40,56.00 997.95,56.00 995.73,56.00 994.28,56.00 992.06,68.30 990.50,67.69 988.28,56.00 986.83,102.74 984.61,83.27 983.16,56.00 980.94,79.99 979.38,79.37 977.15,79.37 975.71,56.00 973.48,56.00 972.04,56.00 969.81,56.00 968.26,56.00 966.03,72.40 964.59,72.40 962.36,56.00 960.92,63.79 958.69,79.37 957.14,94.95 954.91,56.00 953.47,56.00 951.24,56.00 949.80,56.00 947.57,59.90 946.02,76.50 943.79,75.47 942.35,67.69 940.12,67.69 938.56,56.00 936.34,56.00 934.89,56.00 932.67,71.58 931.22,56.00 929.00,56.00 927.44,87.16 925.22,71.58 923.77,71.58 921.55,68.09 920.10,87.78 917.88,87.78 916.32,87.16 914.10,75.47 912.65,75.47 910.43,56.00 908.98,63.79 906.76,63.79 905.20,80.40 902.98,79.37 901.53,91.05 899.31,56.00 897.86,75.47 895.64,75.47 894.08,75.47 891.86,56.00 890.41,56.00 888.19,71.78 886.74,59.90 884.52,84.29 882.96,71.78 880.73,111.97 879.29,96.80 877.06,96.80 875.51,96.80 873.28,92.49 871.84,56.00 869.61,56.00 868.17,56.00 865.94,71.58 864.39,56.00 862.16,71.58 860.72,72.40 858.49,71.78 857.05,83.47 854.82,83.47 853.27,104.17 851.04,83.27 849.60,56.00 847.37,56.00 845.93,56.00 843.70,56.00 842.14,56.00 839.92,56.00 838.47,56.00 836.25,56.00 834.80,56.00 832.58,56.00 831.02,56.00 828.80,67.69 827.35,67.69 825.13,67.69 823.68,67.69 821.46,67.69 819.90,67.69 817.68,68.30 816.23,68.30 814.01,84.50 812.45,84.09 810.23,84.09 808.78,71.58 806.56,71.58 804.33,76.09 802.89,80.40 800.66,75.47 799.11,75.47 796.88,59.90 795.44,79.37 793.21,56.00 791.77,56.00 789.54,56.00 787.98,63.79 785.76,63.79 784.31,64.00 782.09,96.38 780.64,84.50 778.42,56.00 776.86,56.00 774.64,56.00 773.19,56.00 770.97,56.00 769.52,56.00 767.30,75.47 765.74,75.47 763.52,56.00 762.07,56.00 759.85,56.00 758.40,67.69 756.18,56.00 754.62,71.58 752.40,56.00 750.95,56.00 748.73,56.00 747.17,56.00 744.95,56.00 743.50,56.00 741.28,67.69 739.83,83.27 737.61,83.27 736.05,83.27 733.82,83.27 732.38,83.27 730.15,56.00 728.71,56.00 726.48,56.00 724.93,63.79 722.70,63.79 721.26,63.79 719.03,83.67 717.59,63.79 715.36,75.47 713.81,75.47 711.58,75.47 710.14,75.47 707.91,59.90 706.47,59.90 704.24,59.90 702.69,59.90 700.46,79.37 699.02,56.00 696.79,56.00 695.35,56.00 693.12,56.00 691.56,83.27 689.34,56.00 687.89,56.00 685.67,56.00 684.11,83.27 681.89,79.37 680.44,83.27 678.22,83.27 676.77,83.27 674.55,83.27 672.99,83.27 670.77,67.69 669.32,91.05 667.10,91.05 665.65,79.37 663.43,56.00 661.87,75.47 659.65,75.47 658.20,75.47 655.98,56.00 654.53,56.00 652.31,56.00 650.75,56.00 648.53,56.00 647.08,56.00 644.86,67.69 643.41,56.00 641.19,87.16 639.63,75.47 637.40,56.00 635.96,56.00 633.73,56.00 632.29,59.90 630.06,56.00 628.51,56.00 626.28,56.00 624.84,56.00 622.61,56.00 621.17,56.00 618.83,67.69 617.39,67.69 615.16,67.69 613.72,91.05 611.49,91.05 609.94,71.58 607.71,91.05 606.27,67.69 604.04,71.58 602.60,71.58 600.37,87.98 598.81,75.47 596.59,71.58 595.14,71.58 592.92,98.84 591.47,68.30 589.25,83.27 587.69,83.27 585.47,67.69 584.02,56.00 581.80,56.00 580.35,71.58 578.13,71.58 576.57,71.58 574.35,83.47 572.90,60.10 570.68,59.90 569.23,59.90 567.01,59.90 565.45,67.89 563.23,72.20 561.78,67.69 559.56,67.69 558.11,67.69 555.89,98.84 554.33,75.47 552.11,88.19 550.66,88.19 548.44,88.19 546.88,88.19 544.65,87.16 543.21,71.58 540.98,71.58 539.54,71.58 537.31,56.00 535.76,56.00 533.53,56.00 532.09,56.00 529.86,56.00 528.42,56.00 526.19,56.00 524.64,56.00 522.41,75.47 520.97,75.47 518.74,67.69 517.30,56.00 515.07,56.00 513.52,56.00 511.29,56.00 509.85,56.00 507.62,56.00 506.18,56.00 503.95,56.00 502.39,71.58 500.17,56.00 498.72,59.90 496.50,59.90 495.05,59.90 492.83,59.90 491.27,106.63 489.05,91.05 487.60,91.05 485.38,91.05 483.82,91.26 481.60,67.69 480.15,67.69 477.93,56.00 476.48,56.00 474.26,56.00 472.70,56.00 470.48,91.46 469.03,104.59 466.81,71.58 465.36,72.40 463.14,72.40 461.58,79.37 459.36,79.37 457.91,79.37 455.69,56.00 454.24,84.09 452.02,83.47 450.46,71.58 448.23,67.69 446.79,67.69 444.56,67.69 443.12,87.16 440.89,87.16 439.34,87.16 437.11,87.16 435.67,87.16 433.44,87.16 431.22,87.16 429.77,67.69 427.55,75.47 425.99,110.53 423.77,79.37 422.32,79.37 420.10,80.60 418.54,56.00 416.32,75.47 414.87,56.00 412.65,83.27 411.20,94.95 408.98,56.00 407.42,56.00 405.20,67.69 403.75,67.69 401.53,56.00 400.08,56.00 397.86,79.37 396.30,94.95 394.07,56.00 392.63,56.00 390.40,56.00 388.96,59.90 386.73,59.90 385.18,71.58 382.95,76.09 381.51,56.00 379.28,56.00 377.84,71.58 375.61,67.69 374.06,67.69 371.83,56.00 370.39,83.27 368.16,56.00 366.72,56.00 364.49,56.00 362.94,71.58 360.71,88.19 359.27,87.16 357.04,87.16 355.48,87.16 353.26,56.00 351.81,56.00 349.59,56.00 348.14,56.00 345.92,56.00 344.36,56.00 342.14,106.63 340.69,95.36 338.47,96.59 337.02,96.59 334.80,68.09 333.24,68.09 331.02,79.99 329.57,79.99 327.35,79.99 325.90,103.97 323.68,83.88 322.12,83.88 319.90,79.37 318.45,79.37 316.23,79.37 314.78,59.90 312.56,59.90 311.00,83.27 308.78,83.47 307.33,91.05 305.11,92.49 303.66,92.49 301.44,67.69 299.88,67.69 297.65,56.00 296.21,83.47 293.98,72.40 292.43,71.58 290.20,71.58 288.76,71.58 286.53,71.58 285.09,59.90 282.86,67.89 281.31,72.20 279.08,118.94 277.64,79.99 275.41,56.00 273.97,56.00 271.74,63.79 270.19,91.05 267.96,91.46 266.52,91.46 264.29,80.19 262.85,59.90 260.62,59.90 259.06,91.05 256.84,56.00 255.39,63.79 253.17,63.79 251.72,63.79 249.50,63.79 247.94,63.79 245.72,63.79 244.27,79.37 242.05,79.37 240.60,79.37 238.38,79.37 236.82,79.58 234.60,92.08 233.15,91.05 230.93,94.95 229.48,94.95 227.15,95.16 225.70,95.77 223.48,96.80 222.03,95.36 219.81,95.36 218.25,95.36 216.03,79.37 214.58,79.37 212.36,94.95 210.91,83.27 208.69,67.69 207.13,67.69 204.90,56.00 203.46,56.00 201.23,56.00 199.79,56.00 197.56,79.37 196.01,64.00 193.78,87.37 192.34,88.39 190.11,79.78 188.67,79.78 186.44,103.97 184.89,80.40 182.66,79.37 181.22,79.37 178.99,79.37 177.55,79.99 175.32,79.37 173.77,75.68 171.54,59.90 170.10,59.90 167.87,67.89 166.43,99.05 164.20,84.29 162.64,84.29 160.42,83.27 158.97,96.38 156.75,94.95 155.19,95.77 152.97,72.20 151.52,80.19 149.30,92.70 147.85,92.70 145.63,87.98 144.07,87.16 141.85,87.16 140.40,87.16 138.18,87.16 136.73,56.00 134.51,56.00 132.95,56.00 130.73,56.00 129.28,56.00 127.06,56.00 125.61,56.00 123.39,56.00 121.83,79.99 119.61,79.99 118.16,79.78 115.94,95.36 114.49,95.36 112.27,56.00 110.71,56.00 108.48,56.00 107.04,56.00 104.81,63.79 103.37,87.37 101.14,87.78 99.59,68.09 97.36,92.49 95.92,91.05 93.69,56.00 92.14,56.00 89.91,56.00 88.47,56.00 86.24,56.00 84.80,75.47 82.57,75.47 81.02,56.00 78.79,71.58 77.35,71.58 75.12,72.20 73.68,95.57 71.45,95.57 69.89,95.57 67.67,94.95 66.22,94.95 64.00,384.00" fill="#60a5fa" opacity="0.18"/><polygon points="64.00,384.00 66.22,66.25 67.67,66.25 69.89,75.47 71.45,75.47 73.68,75.47 75.12,69.33 77.35,60.10 78.79,60.10 81.02,56.00 82.57,61.12 84.80,61.12 86.24,56.00 88.47,56.00 89.91,56.00 92.14,56.00 93.69,56.00 95.92,65.22 97.36,86.75 99.59,65.22 101.14,73.42 103.37,67.28 104.81,58.05 107.04,56.00 108.48,56.00 110.71,56.00 112.27,56.00 114.49,72.40 115.94,72.40 118.16,68.30 119.61,71.38 121.83,71.38 123.39,56.00 125.61,56.00 127.06,56.00 129.28,56.00 130.73,56.00 132.95,56.00 134.51,56.00 136.73,56.00 138.18,64.20 140.40,64.20 141.85,64.20 144.07,64.20 145.63,76.50 147.85,89.83 149.30,89.83 151.52,74.45 152.97,69.33 155.19,78.55 156.75,66.25 158.97,87.78 160.42,63.17 162.64,78.55 164.20,78.55 166.43,70.35 167.87,62.15 170.10,57.03 171.54,57.03 173.77,64.20 175.32,62.15 177.55,71.38 178.99,62.15 181.22,62.15 182.66,62.15 184.89,77.53 186.44,86.75 188.67,68.30 190.11,68.30 192.34,82.65 193.78,67.28 196.01,61.12 197.56,62.15 199.79,56.00 201.23,56.00 203.46,56.00 204.90,56.00 207.13,59.08 208.69,59.08 210.91,63.17 212.36,66.25 214.58,62.15 216.03,62.15 218.25,72.40 219.81,72.40 222.03,72.40 223.48,93.92 225.70,78.55 227.15,69.33 229.48,66.25 230.93,66.25 233.15,65.22 234.60,80.60 236.82,65.22 238.38,62.15 240.60,62.15 242.05,62.15 244.27,62.15 245.72,58.05 247.94,58.05 249.50,58.05 251.72,58.05 253.17,58.05 255.39,58.05 256.84,56.00 259.06,65.22 260.62,57.03 262.85,57.03 264.29,74.45 266.52,71.38 267.96,71.38 270.19,65.22 271.74,58.05 273.97,56.00 275.41,56.00 277.64,71.38 279.08,81.62 281.31,69.33 282.86,62.15 285.09,57.03 286.53,60.10 288.76,60.10 290.20,60.10 292.43,60.10 293.98,72.40 296.21,66.25 297.65,56.00 299.88,59.08 301.44,59.08 303.66,86.75 305.11,86.75 307.33,65.22 308.78,66.25 311.00,63.17 312.56,57.03 314.78,57.03 316.23,62.15 318.45,62.15 319.90,62.15 322.12,72.40 323.68,72.40 325.90,86.75 327.35,71.38 329.57,71.38 331.02,71.38 333.24,65.22 334.80,65.22 337.02,90.85 338.47,90.85 340.69,72.40 342.14,69.33 344.36,56.00 345.92,56.00 348.14,56.00 349.59,56.00 351.81,56.00 353.26,56.00 355.48,64.20 357.04,64.20 359.27,64.20 360.71,79.58 362.94,60.10 364.49,56.00 366.72,56.00 368.16,56.00 370.39,63.17 371.83,56.00 374.06,59.08 375.61,59.08 377.84,60.10 379.28,56.00 381.51,56.00 382.95,70.35 385.18,60.10 386.73,57.03 388.96,57.03 390.40,56.00 392.63,56.00 394.07,56.00 396.30,66.25 397.86,62.15 400.08,56.00 401.53,56.00 403.75,59.08 405.20,59.08 407.42,56.00 408.98,56.00 411.20,66.25 412.65,63.17 414.87,56.00 416.32,61.12 418.54,56.00 420.10,80.60 422.32,62.15 423.77,62.15 425.99,70.35 427.55,61.12 429.77,59.08 431.22,64.20 433.44,64.20 435.67,64.20 437.11,64.20 439.34,64.20 440.89,64.20 443.12,64.20 444.56,59.08 446.79,59.08 448.23,59.08 450.46,60.10 452.02,66.25 454.24,75.47 455.69,56.00 457.91,62.15 459.36,62.15 461.58,62.15 463.14,72.40 465.36,72.40 466.81,60.10 469.03,95.97 470.48,71.38 472.70,56.00 474.26,56.00 476.48,56.00 477.93,56.00 480.15,59.08 481.60,59.08 483.82,68.30 485.38,65.22 487.60,65.22 489.05,65.22 491.27,69.33 492.83,57.03 495.05,57.03 496.50,57.03 498.72,57.03 500.17,56.00 502.39,60.10 503.95,56.00 506.18,56.00 507.62,56.00 509.85,56.00 511.29,56.00 513.52,56.00 515.07,56.00 517.30,56.00 518.74,59.08 520.97,61.12 522.41,61.12 524.64,56.00 526.19,56.00 528.42,56.00 529.86,56.00 532.09,56.00 533.53,56.00 535.76,56.00 537.31,56.00 539.54,60.10 540.98,60.10 543.21,60.10 544.65,64.20 546.88,79.58 548.44,79.58 550.66,79.58 552.11,79.58 554.33,61.12 555.89,67.28 558.11,59.08 559.56,59.08 561.78,59.08 563.23,69.33 565.45,62.15 567.01,57.03 569.23,57.03 570.68,57.03 572.90,60.10 574.35,66.25 576.57,60.10 578.13,60.10 580.35,60.10 581.80,56.00 584.02,56.00 585.47,59.08 587.69,63.17 589.25,63.17 591.47,68.30 592.92,67.28 595.14,60.10 596.59,60.10 598.81,61.12 600.37,76.50 602.60,60.10 604.04,60.10 606.27,59.08 607.71,65.22 609.94,60.10 611.49,65.22 613.72,65.22 615.16,59.08 617.39,59.08 618.83,59.08 621.17,56.00 622.61,56.00 624.84,56.00 626.28,56.00 628.51,56.00 630.06,56.00 632.29,57.03 633.73,56.00 635.96,56.00 637.40,56.00 639.63,61.12 641.19,64.20 643.41,56.00 644.86,59.08 647.08,56.00 648.53,56.00 650.75,56.00 652.31,56.00 654.53,56.00 655.98,56.00 658.20,61.12 659.65,61.12 661.87,61.12 663.43,56.00 665.65,62.15 667.10,65.22 669.32,65.22 670.77,59.08 672.99,63.17 674.55,63.17 676.77,63.17 678.22,63.17 680.44,63.17 681.89,62.15 684.11,63.17 685.67,56.00 687.89,56.00 689.34,56.00 691.56,63.17 693.12,56.00 695.35,56.00 696.79,56.00 699.02,56.00 700.46,62.15 702.69,57.03 704.24,57.03 706.47,57.03 707.91,57.03 710.14,61.12 711.58,61.12 713.81,61.12 715.36,61.12 717.59,58.05 719.03,69.33 721.26,58.05 722.70,58.05 724.93,58.05 726.48,56.00 728.71,56.00 730.15,56.00 732.38,63.17 733.82,63.17 736.05,63.17 737.61,63.17 739.83,63.17 741.28,59.08 743.50,56.00 744.95,56.00 747.17,56.00 748.73,56.00 750.95,56.00 752.40,56.00 754.62,60.10 756.18,56.00 758.40,59.08 759.85,56.00 762.07,56.00 763.52,56.00 765.74,61.12 767.30,61.12 769.52,56.00 770.97,56.00 773.19,56.00 774.64,56.00 776.86,56.00 778.42,56.00 780.64,81.62 782.09,87.78 784.31,61.12 785.76,58.05 787.98,58.05 789.54,56.00 791.77,56.00 793.21,56.00 795.44,62.15 796.88,57.03 799.11,61.12 800.66,61.12 802.89,77.53 804.33,70.35 806.56,60.10 808.78,60.10 810.23,75.47 812.45,75.47 814.01,81.62 816.23,68.30 817.68,68.30 819.90,59.08 821.46,59.08 823.68,59.08 825.13,59.08 827.35,59.08 828.80,59.08 831.02,56.00 832.58,56.00 834.80,56.00 836.25,56.00 838.47,56.00 839.92,56.00 842.14,56.00 843.70,56.00 845.93,56.00 847.37,56.00 849.60,56.00 851.04,63.17 853.27,89.83 854.82,66.25 857.05,66.25 858.49,63.17 860.72,72.40 862.16,60.10 864.39,56.00 865.94,60.10 868.17,56.00 869.61,56.00 871.84,56.00 873.28,86.75 875.51,93.92 877.06,93.92 879.29,93.92 880.73,91.88 882.96,63.17 884.52,78.55 886.74,57.03 888.19,63.17 890.41,56.00 891.86,56.00 894.08,61.12 895.64,61.12 897.86,61.12 899.31,56.00 901.53,65.22 902.98,62.15 905.20,77.53 906.76,58.05 908.98,58.05 910.43,56.00 912.65,61.12 914.10,61.12 916.32,64.20 917.88,73.42 920.10,73.42 921.55,65.22 923.77,60.10 925.22,60.10 927.44,64.20 929.00,56.00 931.22,56.00 932.67,60.10 934.89,56.00 936.34,56.00 938.56,56.00 940.12,59.08 942.35,59.08 943.79,61.12 946.02,76.50 947.57,57.03 949.80,56.00 951.24,56.00 953.47,56.00 954.91,56.00 957.14,66.25 958.69,62.15 960.92,58.05 962.36,56.00 964.59,72.40 966.03,72.40 968.26,56.00 969.81,56.00 972.04,56.00 973.48,56.00 975.71,56.00 977.15,62.15 979.38,62.15 980.94,71.38 983.16,56.00 984.61,63.17 986.83,68.30 988.28,56.00 990.50,59.08 992.06,68.30 994.28,56.00 995.73,56.00 997.95,56.00 999.40,56.00 1001.62,61.12 1003.18,63.17 1005.40,56.00 1006.85,56.00 1009.07,62.15 1010.52,56.00 1012.85,60.10 1014.30,60.10 1016.52,62.15 1017.97,63.17 1020.19,60.10 1021.75,60.10 1023.97,60.10 1025.42,64.20 1027.64,70.35 1029.09,60.10 1031.31,56.00 1032.87,61.12 1035.10,67.28 1036.54,61.12 1038.77,59.08 1040.21,59.08 1042.44,59.08 1043.99,73.42 1046.22,64.20 1047.66,64.20 1049.89,57.03 1051.33,57.03 1053.56,56.00 1055.11,56.00 1057.34,63.17 1058.78,63.17 1061.01,65.22 1062.45,83.67 1064.68,65.22 1066.23,66.25 1068.46,66.25 1069.90,56.00 1072.13,61.12 1073.57,56.00 1075.80,60.10 1077.36,62.15 1079.58,62.15 1081.03,71.38 1083.25,59.08 1084.81,76.50 1087.03,59.08 1088.48,59.08 1090.70,77.53 1092.15,77.53 1094.37,70.35 1095.93,64.20 1098.15,82.65 1099.60,82.65 1101.82,58.05 1103.27,58.05 1105.49,63.17 1107.05,56.00 1109.27,56.00 1110.72,56.00 1112.94,56.00 1114.39,61.12 1116.61,61.12 1118.17,59.08 1120.39,64.20 1121.84,60.10 1124.06,60.10 1125.51,60.10 1127.73,62.15 1129.29,66.25 1131.52,66.25 1132.96,56.00 1135.19,56.00 1136.63,56.00 1138.86,61.12 1140.41,56.00 1142.64,60.10 1144.08,60.10 1146.31,60.10 1147.86,56.00 1150.09,56.00 1151.53,60.10 1153.76,60.10 1155.20,60.10 1157.43,66.25 1158.98,66.25 1161.21,63.17 1162.65,58.05 1164.88,56.00 1166.32,56.00 1168.55,61.12 1170.11,77.53 1172.33,77.53 1173.78,65.22 1176.00,65.22 1176.00,83.67 1173.78,83.67 1172.33,79.58 1170.11,79.58 1168.55,71.38 1166.32,56.00 1164.88,56.00 1162.65,62.15 1161.21,77.53 1158.98,86.75 1157.43,86.75 1155.20,68.30 1153.76,68.30 1151.53,68.30 1150.09,56.00 1147.86,56.00 1146.31,68.30 1144.08,68.30 1142.64,68.30 1140.41,56.00 1138.86,71.38 1136.63,56.00 1135.19,56.00 1132.96,56.00 1131.52,86.75 1129.29,86.75 1127.73,74.45 1125.51,68.30 1124.06,68.30 1121.84,68.30 1120.39,80.60 1118.17,65.22 1116.61,71.38 1114.39,71.38 1112.94,56.00 1110.72,56.00 1109.27,56.00 1107.05,56.00 1105.49,77.53 1103.27,62.15 1101.82,62.15 1099.60,86.75 1098.15,86.75 1095.93,80.60 1094.37,82.65 1092.15,87.78 1090.70,87.78 1088.48,65.22 1087.03,65.22 1084.81,92.90 1083.25,65.22 1081.03,77.53 1079.58,66.25 1077.36,66.25 1075.80,68.30 1073.57,56.00 1072.13,71.38 1069.90,56.00 1068.46,86.75 1066.23,86.75 1064.68,83.67 1062.45,89.83 1061.01,83.67 1058.78,77.53 1057.34,77.53 1055.11,56.00 1053.56,56.00 1051.33,59.08 1049.89,59.08 1047.66,80.60 1046.22,80.60 1043.99,108.28 1042.44,65.22 1040.21,65.22 1038.77,65.22 1036.54,71.38 1035.10,73.42 1032.87,71.38 1031.31,56.00 1029.09,68.30 1027.64,99.05 1025.42,80.60 1023.97,68.30 1021.75,68.30 1020.19,68.30 1017.97,77.53 1016.52,74.45 1014.30,68.30 1012.85,68.30 1010.52,56.00 1009.07,74.45 1006.85,56.00 1005.40,56.00 1003.18,77.53 1001.62,71.38 999.40,56.00 997.95,56.00 995.73,56.00 994.28,56.00 992.06,68.30 990.50,65.22 988.28,56.00 986.83,92.90 984.61,77.53 983.16,56.00 980.94,77.53 979.38,74.45 977.15,74.45 975.71,56.00 973.48,56.00 972.04,56.00 969.81,56.00 968.26,56.00 966.03,72.40 964.59,72.40 962.36,56.00 960.92,62.15 958.69,74.45 957.14,86.75 954.91,56.00 953.47,56.00 951.24,56.00 949.80,56.00 947.57,59.08 946.02,76.50 943.79,71.38 942.35,65.22 940.12,65.22 938.56,56.00 936.34,56.00 934.89,56.00 932.67,68.30 931.22,56.00 929.00,56.00 927.44,80.60 925.22,68.30 923.77,68.30 921.55,67.28 920.10,83.67 917.88,83.67 916.32,80.60 914.10,71.38 912.65,71.38 910.43,56.00 908.98,62.15 906.76,62.15 905.20,79.58 902.98,74.45 901.53,83.67 899.31,56.00 897.86,71.38 895.64,71.38 894.08,71.38 891.86,56.00 890.41,56.00 888.19,69.33 886.74,59.08 884.52,82.65 882.96,69.33 880.73,106.22 879.29,95.97 877.06,95.97 875.51,95.97 873.28,90.85 871.84,56.00 869.61,56.00 868.17,56.00 865.94,68.30 864.39,56.00 862.16,68.30 860.72,72.40 858.49,69.33 857.05,78.55 854.82,78.55 853.27,100.08 851.04,77.53 849.60,56.00 847.37,56.00 845.93,56.00 843.70,56.00 842.14,56.00 839.92,56.00 838.47,56.00 836.25,56.00 834.80,56.00 832.58,56.00 831.02,56.00 828.80,65.22 827.35,65.22 825.13,65.22 823.68,65.22 821.46,65.22 819.90,65.22 817.68,68.30 816.23,68.30 814.01,83.67 812.45,81.62 810.23,81.62 808.78,68.30 806.56,68.30 804.33,74.45 802.89,79.58 800.66,71.38 799.11,71.38 796.88,59.08 795.44,74.45 793.21,56.00 791.77,56.00 789.54,56.00 787.98,62.15 785.76,62.15 784.31,63.17 782.09,93.92 780.64,83.67 778.42,56.00 776.86,56.00 774.64,56.00 773.19,56.00 770.97,56.00 769.52,56.00 767.30,71.38 765.74,71.38 763.52,56.00 762.07,56.00 759.85,56.00 758.40,65.22 756.18,56.00 754.62,68.30 752.40,56.00 750.95,56.00 748.73,56.00 747.17,56.00 744.95,56.00 743.50,56.00 741.28,65.22 739.83,77.53 737.61,77.53 736.05,77.53 733.82,77.53 732.38,77.53 730.15,56.00 728.71,56.00 726.48,56.00 724.93,62.15 722.70,62.15 721.26,62.15 719.03,79.58 717.59,62.15 715.36,71.38 713.81,71.38 711.58,71.38 710.14,71.38 707.91,59.08 706.47,59.08 704.24,59.08 702.69,59.08 700.46,74.45 699.02,56.00 696.79,56.00 695.35,56.00 693.12,56.00 691.56,77.53 689.34,56.00 687.89,56.00 685.67,56.00 684.11,77.53 681.89,74.45 680.44,77.53 678.22,77.53 676.77,77.53 674.55,77.53 672.99,77.53 670.77,65.22 669.32,83.67 667.10,83.67 665.65,74.45 663.43,56.00 661.87,71.38 659.65,71.38 658.20,71.38 655.98,56.00 654.53,56.00 652.31,56.00 650.75,56.00 648.53,56.00 647.08,56.00 644.86,65.22 643.41,56.00 641.19,80.60 639.63,71.38 637.40,56.00 635.96,56.00 633.73,56.00 632.29,59.08 630.06,56.00 628.51,56.00 626.28,56.00 624.84,56.00 622.61,56.00 621.17,56.00 618.83,65.22 617.39,65.22 615.16,65.22 613.72,83.67 611.49,83.67 609.94,68.30 607.71,83.67 606.27,65.22 604.04,68.30 602.60,68.30 600.37,84.70 598.81,71.38 596.59,68.30 595.14,68.30 592.92,89.83 591.47,68.30 589.25,77.53 587.69,77.53 585.47,65.22 584.02,56.00 581.80,56.00 580.35,68.30 578.13,68.30 576.57,68.30 574.35,78.55 572.90,60.10 570.68,59.08 569.23,59.08 567.01,59.08 565.45,66.25 563.23,71.38 561.78,65.22 559.56,65.22 558.11,65.22 555.89,89.83 554.33,71.38 552.11,85.72 550.66,85.72 548.44,85.72 546.88,85.72 544.65,80.60 543.21,68.30 540.98,68.30 539.54,68.30 537.31,56.00 535.76,56.00 533.53,56.00 532.09,56.00 529.86,56.00 528.42,56.00 526.19,56.00 524.64,56.00 522.41,71.38 520.97,71.38 518.74,65.22 517.30,56.00 515.07,56.00 513.52,56.00 511.29,56.00 509.85,56.00 507.62,56.00 506.18,56.00 503.95,56.00 502.39,68.30 500.17,56.00 498.72,59.08 496.50,59.08 495.05,59.08 492.83,59.08 491.27,95.97 489.05,83.67 487.60,83.67 485.38,83.67 483.82,84.70 481.60,65.22 480.15,65.22 477.93,56.00 476.48,56.00 474.26,56.00 472.70,56.00 470.48,85.72 469.03,102.12 466.81,68.30 465.36,72.40 463.14,72.40 461.58,74.45 459.36,74.45 457.91,74.45 455.69,56.00 454.24,81.62 452.02,78.55 450.46,68.30 448.23,65.22 446.79,65.22 444.56,65.22 443.12,80.60 440.89,80.60 439.34,80.60 437.11,80.60 435.67,80.60 433.44,80.60 431.22,80.60 429.77,65.22 427.55,71.38 425.99,99.05 423.77,74.45 422.32,74.45 420.10,80.60 418.54,56.00 416.32,71.38 414.87,56.00 412.65,77.53 411.20,86.75 408.98,56.00 407.42,56.00 405.20,65.22 403.75,65.22 401.53,56.00 400.08,56.00 397.86,74.45 396.30,86.75 394.07,56.00 392.63,56.00 390.40,56.00 388.96,59.08 386.73,59.08 385.18,68.30 382.95,74.45 381.51,56.00 379.28,56.00 377.84,68.30 375.61,65.22 374.06,65.22 371.83,56.00 370.39,77.53 368.16,56.00 366.72,56.00 364.49,56.00 362.94,68.30 360.71,85.72 359.27,80.60 357.04,80.60 355.48,80.60 353.26,56.00 351.81,56.00 349.59,56.00 348.14,56.00 345.92,56.00 344.36,56.00 342.14,95.97 340.69,88.80 338.47,94.95 337.02,94.95 334.80,67.28 333.24,67.28 331.02,77.53 329.57,77.53 327.35,77.53 325.90,99.05 323.68,80.60 322.12,80.60 319.90,74.45 318.45,74.45 316.23,74.45 314.78,59.08 312.56,59.08 311.00,77.53 308.78,78.55 307.33,83.67 305.11,90.85 303.66,90.85 301.44,65.22 299.88,65.22 297.65,56.00 296.21,78.55 293.98,72.40 292.43,68.30 290.20,68.30 288.76,68.30 286.53,68.30 285.09,59.08 282.86,66.25 281.31,71.38 279.08,108.28 277.64,77.53 275.41,56.00 273.97,56.00 271.74,62.15 270.19,83.67 267.96,85.72 266.52,85.72 264.29,78.55 262.85,59.08 260.62,59.08 259.06,83.67 256.84,56.00 255.39,62.15 253.17,62.15 251.72,62.15 249.50,62.15 247.94,62.15 245.72,62.15 244.27,74.45 242.05,74.45 240.60,74.45 238.38,74.45 236.82,75.47 234.60,88.80 233.15,83.67 230.93,86.75 229.48,86.75 227.15,87.78 225.70,90.85 223.48,95.97 222.03,88.80 219.81,88.80 218.25,88.80 216.03,74.45 214.58,74.45 212.36,86.75 210.91,77.53 208.69,65.22 207.13,65.22 204.90,56.00 203.46,56.00 201.23,56.00 199.79,56.00 197.56,74.45 196.01,63.17 193.78,81.62 192.34,86.75 190.11,76.50 188.67,76.50 186.44,99.05 184.89,79.58 182.66,74.45 181.22,74.45 178.99,74.45 177.55,77.53 175.32,74.45 173.77,72.40 171.54,59.08 170.10,59.08 167.87,66.25 166.43,90.85 164.20,82.65 162.64,82.65 160.42,77.53 158.97,93.92 156.75,86.75 155.19,90.85 152.97,71.38 151.52,78.55 149.30,91.88 147.85,91.88 145.63,84.70 144.07,80.60 141.85,80.60 140.40,80.60 138.18,80.60 136.73,56.00 134.51,56.00 132.95,56.00 130.73,56.00 129.28,56.00 127.06,56.00 125.61,56.00 123.39,56.00 121.83,77.53 119.61,77.53 118.16,76.50 115.94,88.80 114.49,88.80 112.27,56.00 110.71,56.00 108.48,56.00 107.04,56.00 104.81,62.15 103.37,81.62 101.14,83.67 99.59,67.28 97.36,90.85 95.92,83.67 93.69,56.00 92.14,56.00 89.91,56.00 88.47,56.00 86.24,56.00 84.80,71.38 82.57,71.38 81.02,56.00 78.79,68.30 77.35,68.30 75.12,71.38 73.68,89.83 71.45,89.83 69.89,89.83 67.67,86.75 66.22,86.75 64.00,384.00" fill="#3b82f6" opacity="0.28"/><polyline points="64.00,384.00 66.22,76.50 67.67,76.50 69.89,82.65 71.45,82.65 73.68,82.65 75.12,70.35 77.35,64.20 78.79,64.20 81.02,56.00 82.57,66.25 84.80,66.25 86.24,56.00 88.47,56.00 89.91,56.00 92.14,56.00 93.69,56.00 95.92,74.45 97.36,88.80 99.59,66.25 101.14,78.55 103.37,74.45 104.81,60.10 107.04,56.00 108.48,56.00 110.71,56.00 112.27,56.00 114.49,80.60 115.94,80.60 118.16,72.40 119.61,74.45 121.83,74.45 123.39,56.00 125.61,56.00 127.06,56.00 129.28,56.00 130.73,56.00 132.95,56.00 134.51,56.00 136.73,56.00 138.18,72.40 140.40,72.40 141.85,72.40 144.07,72.40 145.63,80.60 147.85,90.85 149.30,90.85 151.52,76.50 152.97,70.35 155.19,84.70 156.75,76.50 158.97,90.85 160.42,70.35 162.64,80.60 164.20,80.60 166.43,80.60 167.87,64.20 170.10,58.05 171.54,58.05 173.77,68.30 175.32,68.30 177.55,74.45 178.99,68.30 181.22,68.30 182.66,68.30 184.89,78.55 186.44,92.90 188.67,72.40 190.11,72.40 192.34,84.70 193.78,74.45 196.01,62.15 197.56,68.30 199.79,56.00 201.23,56.00 203.46,56.00 204.90,56.00 207.13,62.15 208.69,62.15 210.91,70.35 212.36,76.50 214.58,68.30 216.03,68.30 218.25,80.60 219.81,80.60 222.03,80.60 223.48,94.95 225.70,84.70 227.15,78.55 229.48,76.50 230.93,76.50 233.15,74.45 234.60,84.70 236.82,70.35 238.38,68.30 240.60,68.30 242.05,68.30 244.27,68.30 245.72,60.10 247.94,60.10 249.50,60.10 251.72,60.10 253.17,60.10 255.39,60.10 256.84,56.00 259.06,74.45 260.62,58.05 262.85,58.05 264.29,76.50 266.52,78.55 267.96,78.55 270.19,74.45 271.74,60.10 273.97,56.00 275.41,56.00 277.64,74.45 279.08,94.95 281.31,70.35 282.86,64.20 285.09,58.05 286.53,64.20 288.76,64.20 290.20,64.20 292.43,64.20 293.98,72.40 296.21,72.40 297.65,56.00 299.88,62.15 301.44,62.15 303.66,88.80 305.11,88.80 307.33,74.45 308.78,72.40 311.00,70.35 312.56,58.05 314.78,58.05 316.23,68.30 318.45,68.30 319.90,68.30 322.12,76.50 323.68,76.50 325.90,92.90 327.35,74.45 329.57,74.45 331.02,74.45 333.24,66.25 334.80,66.25 337.02,92.90 338.47,92.90 340.69,80.60 342.14,82.65 344.36,56.00 345.92,56.00 348.14,56.00 349.59,56.00 351.81,56.00 353.26,56.00 355.48,72.40 357.04,72.40 359.27,72.40 360.71,82.65 362.94,64.20 364.49,56.00 366.72,56.00 368.16,56.00 370.39,70.35 371.83,56.00 374.06,62.15 375.61,62.15 377.84,64.20 379.28,56.00 381.51,56.00 382.95,72.40 385.18,64.20 386.73,58.05 388.96,58.05 390.40,56.00 392.63,56.00 394.07,56.00 396.30,76.50 397.86,68.30 400.08,56.00 401.53,56.00 403.75,62.15 405.20,62.15 407.42,56.00 408.98,56.00 411.20,76.50 412.65,70.35 414.87,56.00 416.32,66.25 418.54,56.00 420.10,80.60 422.32,68.30 423.77,68.30 425.99,84.70 427.55,66.25 429.77,62.15 431.22,72.40 433.44,72.40 435.67,72.40 437.11,72.40 439.34,72.40 440.89,72.40 443.12,72.40 444.56,62.15 446.79,62.15 448.23,62.15 450.46,64.20 452.02,72.40 454.24,78.55 455.69,56.00 457.91,68.30 459.36,68.30 461.58,68.30 463.14,72.40 465.36,72.40 466.81,64.20 469.03,99.05 470.48,78.55 472.70,56.00 474.26,56.00 476.48,56.00 477.93,56.00 480.15,62.15 481.60,62.15 483.82,76.50 485.38,74.45 487.60,74.45 489.05,74.45 491.27,82.65 492.83,58.05 495.05,58.05 496.50,58.05 498.72,58.05 500.17,56.00 502.39,64.20 503.95,56.00 506.18,56.00 507.62,56.00 509.85,56.00 511.29,56.00 513.52,56.00 515.07,56.00 517.30,56.00 518.74,62.15 520.97,66.25 522.41,66.25 524.64,56.00 526.19,56.00 528.42,56.00 529.86,56.00 532.09,56.00 533.53,56.00 535.76,56.00 537.31,56.00 539.54,64.20 540.98,64.20 543.21,64.20 544.65,72.40 546.88,82.65 548.44,82.65 550.66,82.65 552.11,82.65 554.33,66.25 555.89,78.55 558.11,62.15 559.56,62.15 561.78,62.15 563.23,70.35 565.45,64.20 567.01,58.05 569.23,58.05 570.68,58.05 572.90,60.10 574.35,72.40 576.57,64.20 578.13,64.20 580.35,64.20 581.80,56.00 584.02,56.00 585.47,62.15 587.69,70.35 589.25,70.35 591.47,68.30 592.92,78.55 595.14,64.20 596.59,64.20 598.81,66.25 600.37,80.60 602.60,64.20 604.04,64.20 606.27,62.15 607.71,74.45 609.94,64.20 611.49,74.45 613.72,74.45 615.16,62.15 617.39,62.15 618.83,62.15 621.17,56.00 622.61,56.00 624.84,56.00 626.28,56.00 628.51,56.00 630.06,56.00 632.29,58.05 633.73,56.00 635.96,56.00 637.40,56.00 639.63,66.25 641.19,72.40 643.41,56.00 644.86,62.15 647.08,56.00 648.53,56.00 650.75,56.00 652.31,56.00 654.53,56.00 655.98,56.00 658.20,66.25 659.65,66.25 661.87,66.25 663.43,56.00 665.65,68.30 667.10,74.45 669.32,74.45 670.77,62.15 672.99,70.35 674.55,70.35 676.77,70.35 678.22,70.35 680.44,70.35 681.89,68.30 684.11,70.35 685.67,56.00 687.89,56.00 689.34,56.00 691.56,70.35 693.12,56.00 695.35,56.00 696.79,56.00 699.02,56.00 700.46,68.30 702.69,58.05 704.24,58.05 706.47,58.05 707.91,58.05 710.14,66.25 711.58,66.25 713.81,66.25 715.36,66.25 717.59,60.10 719.03,74.45 721.26,60.10 722.70,60.10 724.93,60.10 726.48,56.00 728.71,56.00 730.15,56.00 732.38,70.35 733.82,70.35 736.05,70.35 737.61,70.35 739.83,70.35 741.28,62.15 743.50,56.00 744.95,56.00 747.17,56.00 748.73,56.00 750.95,56.00 752.40,56.00 754.62,64.20 756.18,56.00 758.40,62.15 759.85,56.00 762.07,56.00 763.52,56.00 765.74,66.25 767.30,66.25 769.52,56.00 770.97,56.00 773.19,56.00 774.64,56.00 776.86,56.00 778.42,56.00 780.64,82.65 782.09,90.85 784.31,62.15 785.76,60.10 787.98,60.10 789.54,56.00 791.77,56.00 793.21,56.00 795.44,68.30 796.88,58.05 799.11,66.25 800.66,66.25 802.89,78.55 804.33,72.40 806.56,64.20 808.78,64.20 810.23,78.55 812.45,78.55 814.01,82.65 816.23,68.30 817.68,68.30 819.90,62.15 821.46,62.15 823.68,62.15 825.13,62.15 827.35,62.15 828.80,62.15 831.02,56.00 832.58,56.00 834.80,56.00 836.25,56.00 838.47,56.00 839.92,56.00 842.14,56.00 843.70,56.00 845.93,56.00 847.37,56.00 849.60,56.00 851.04,70.35 853.27,94.95 854.82,72.40 857.05,72.40 858.49,66.25 860.72,72.40 862.16,64.20 864.39,56.00 865.94,64.20 868.17,56.00 869.61,56.00 871.84,56.00 873.28,88.80 875.51,94.95 877.06,94.95 879.29,94.95 880.73,99.05 882.96,66.25 884.52,80.60 886.74,58.05 888.19,66.25 890.41,56.00 891.86,56.00 894.08,66.25 895.64,66.25 897.86,66.25 899.31,56.00 901.53,74.45 902.98,68.30 905.20,78.55 906.76,60.10 908.98,60.10 910.43,56.00 912.65,66.25 914.10,66.25 916.32,72.40 917.88,78.55 920.10,78.55 921.55,66.25 923.77,64.20 925.22,64.20 927.44,72.40 929.00,56.00 931.22,56.00 932.67,64.20 934.89,56.00 936.34,56.00 938.56,56.00 940.12,62.15 942.35,62.15 943.79,66.25 946.02,76.50 947.57,58.05 949.80,56.00 951.24,56.00 953.47,56.00 954.91,56.00 957.14,76.50 958.69,68.30 960.92,60.10 962.36,56.00 964.59,72.40 966.03,72.40 968.26,56.00 969.81,56.00 972.04,56.00 973.48,56.00 975.71,56.00 977.15,68.30 979.38,68.30 980.94,74.45 983.16,56.00 984.61,70.35 986.83,80.60 988.28,56.00 990.50,62.15 992.06,68.30 994.28,56.00 995.73,56.00 997.95,56.00 999.40,56.00 1001.62,66.25 1003.18,70.35 1005.40,56.00 1006.85,56.00 1009.07,68.30 1010.52,56.00 1012.85,64.20 1014.30,64.20 1016.52,68.30 1017.97,70.35 1020.19,64.20 1021.75,64.20 1023.97,64.20 1025.42,72.40 1027.64,84.70 1029.09,64.20 1031.31,56.00 1032.87,66.25 1035.10,70.35 1036.54,66.25 1038.77,62.15 1040.21,62.15 1042.44,62.15 1043.99,90.85 1046.22,72.40 1047.66,72.40 1049.89,58.05 1051.33,58.05 1053.56,56.00 1055.11,56.00 1057.34,70.35 1058.78,70.35 1061.01,74.45 1062.45,86.75 1064.68,74.45 1066.23,76.50 1068.46,76.50 1069.90,56.00 1072.13,66.25 1073.57,56.00 1075.80,64.20 1077.36,64.20 1079.58,64.20 1081.03,74.45 1083.25,62.15 1084.81,84.70 1087.03,62.15 1088.48,62.15 1090.70,82.65 1092.15,82.65 1094.37,76.50 1095.93,72.40 1098.15,84.70 1099.60,84.70 1101.82,60.10 1103.27,60.10 1105.49,70.35 1107.05,56.00 1109.27,56.00 1110.72,56.00 1112.94,56.00 1114.39,66.25 1116.61,66.25 1118.17,62.15 1120.39,72.40 1121.84,64.20 1124.06,64.20 1125.51,64.20 1127.73,68.30 1129.29,76.50 1131.52,76.50 1132.96,56.00 1135.19,56.00 1136.63,56.00 1138.86,66.25 1140.41,56.00 1142.64,64.20 1144.08,64.20 1146.31,64.20 1147.86,56.00 1150.09,56.00 1151.53,64.20 1153.76,64.20 1155.20,64.20 1157.43,76.50 1158.98,76.50 1161.21,70.35 1162.65,60.10 1164.88,56.00 1166.32,56.00 1168.55,66.25 1170.11,78.55 1172.33,78.55 1173.78,74.45 1176.00,74.45" fill="none" stroke="#f8fafc" stroke-width="2"/><polyline points="64.00,384.00 66.22,76.50 67.67,76.50 69.89,82.65 71.45,82.65 73.68,82.65 75.12,70.35 77.35,64.20 78.79,64.20 81.02,56.00 82.57,66.25 84.80,66.25 86.24,56.00 88.47,56.00 89.91,56.00 92.14,56.00 93.69,56.00 95.92,74.45 97.36,88.80 99.59,66.25 101.14,78.55 103.37,74.45 104.81,60.10 107.04,56.00 108.48,56.00 110.71,56.00 112.27,56.00 114.49,80.60 115.94,80.60 118.16,72.40 119.61,74.45 121.83,74.45 123.39,56.00 125.61,56.00 127.06,56.00 129.28,56.00 130.73,56.00 132.95,56.00 134.51,56.00 136.73,56.00 138.18,72.40 140.40,72.40 141.85,72.40 144.07,72.40 145.63,80.60 147.85,90.85 149.30,90.85 151.52,76.50 152.97,70.35 155.19,84.70 156.75,76.50 158.97,90.85 160.42,70.35 162.64,80.60 164.20,80.60 166.43,80.60 167.87,64.20 170.10,58.05 171.54,58.05 173.77,68.30 175.32,68.30 177.55,74.45 178.99,68.30 181.22,68.30 182.66,68.30 184.89,78.55 186.44,92.90 188.67,72.40 190.11,72.40 192.34,84.70 193.78,74.45 196.01,62.15 197.56,68.30 199.79,56.00 201.23,56.00 203.46,56.00 204.90,56.00 207.13,62.15 208.69,62.15 210.91,70.35 212.36,76.50 214.58,68.30 216.03,68.30 218.25,80.60 219.81,80.60 222.03,80.60 223.48,94.95 225.70,84.70 227.15,78.55 229.48,76.50 230.93,76.50 233.15,74.45 234.60,84.70 236.82,70.35 238.38,68.30 240.60,68.30 242.05,68.30 244.27,68.30 245.72,60.10 247.94,60.10 249.50,60.10 251.72,60.10 253.17,60.10 255.39,60.10 256.84,56.00 259.06,74.45 260.62,58.05 262.85,58.05 264.29,76.50 266.52,78.55 267.96,78.55 270.19,74.45 271.74,60.10 273.97,56.00 275.41,56.00 277.64,74.45 279.08,94.95 281.31,70.35 282.86,64.20 285.09,58.05 286.53,64.20 288.76,64.20 290.20,64.20 292.43,64.20 293.98,72.40 296.21,72.40 297.65,56.00 299.88,62.15 301.44,62.15 303.66,88.80 305.11,88.80 307.33,74.45 308.78,72.40 311.00,70.35 312.56,58.05 314.78,58.05 316.23,68.30 318.45,68.30 319.90,68.30 322.12,76.50 323.68,76.50 325.90,92.90 327.35,74.45 329.57,74.45 331.02,74.45 333.24,66.25 334.80,66.25 337.02,92.90 338.47,92.90 340.69,80.60 342.14,82.65 344.36,56.00 345.92,56.00 348.14,56.00 349.59,56.00 351.81,56.00 353.26,56.00 355.48,72.40 357.04,72.40 359.27,72.40 360.71,82.65 362.94,64.20 364.49,56.00 366.72,56.00 368.16,56.00 370.39,70.35 371.83,56.00 374.06,62.15 375.61,62.15 377.84,64.20 379.28,56.00 381.51,56.00 382.95,72.40 385.18,64.20 386.73,58.05 388.96,58.05 390.40,56.00 392.63,56.00 394.07,56.00 396.30,76.50 397.86,68.30 400.08,56.00 401.53,56.00 403.75,62.15 405.20,62.15 407.42,56.00 408.98,56.00 411.20,76.50 412.65,70.35 414.87,56.00 416.32,66.25 418.54,56.00 420.10,80.60 422.32,68.30 423.77,68.30 425.99,84.70 427.55,66.25 429.77,62.15 431.22,72.40 433.44,72.40 435.67,72.40 437.11,72.40 439.34,72.40 440.89,72.40 443.12,72.40 444.56,62.15 446.79,62.15 448.23,62.15 450.46,64.20 452.02,72.40 454.24,78.55 455.69,56.00 457.91,68.30 459.36,68.30 461.58,68.30 463.14,72.40 465.36,72.40 466.81,64.20 469.03,99.05 470.48,78.55 472.70,56.00 474.26,56.00 476.48,56.00 477.93,56.00 480.15,62.15 481.60,62.15 483.82,76.50 485.38,74.45 487.60,74.45 489.05,74.45 491.27,82.65 492.83,58.05 495.05,58.05 496.50,58.05 498.72,58.05 500.17,56.00 502.39,64.20 503.95,56.00 506.18,56.00 507.62,56.00 509.85,56.00 511.29,56.00 513.52,56.00 515.07,56.00 517.30,56.00 518.74,62.15 520.97,66.25 522.41,66.25 524.64,56.00 526.19,56.00 528.42,56.00 529.86,56.00 532.09,56.00 533.53,56.00 535.76,56.00 537.31,56.00 539.54,64.20 540.98,64.20 543.21,64.20 544.65,72.40 546.88,82.65 548.44,82.65 550.66,82.65 552.11,82.65 554.33,66.25 555.89,78.55 558.11,62.15 559.56,62.15 561.78,62.15 563.23,70.35 565.45,64.20 567.01,58.05 569.23,58.05 570.68,58.05 572.90,60.10 574.35,72.40 576.57,64.20 578.13,64.20 580.35,64.20 581.80,56.00 584.02,56.00 585.47,62.15 587.69,70.35 589.25,70.35 591.47,68.30 592.92,78.55 595.14,64.20 596.59,64.20 598.81,66.25 600.37,80.60 602.60,64.20 604.04,64.20 606.27,62.15 607.71,74.45 609.94,64.20 611.49,74.45 613.72,74.45 615.16,62.15 617.39,62.15 618.83,62.15 621.17,56.00 622.61,56.00 624.84,56.00 626.28,56.00 628.51,56.00 630.06,56.00 632.29,58.05 633.73,56.00 635.96,56.00 637.40,56.00 639.63,66.25 641.19,72.40 643.41,56.00 644.86,62.15 647.08,56.00 648.53,56.00 650.75,56.00 652.31,56.00 654.53,56.00 655.98,56.00 658.20,66.25 659.65,66.25 661.87,66.25 663.43,56.00 665.65,68.30 667.10,74.45 669.32,74.45 670.77,62.15 672.99,70.35 674.55,70.35 676.77,70.35 678.22,70.35 680.44,70.35 681.89,68.30 684.11,70.35 685.67,56.00 687.89,56.00 689.34,56.00 691.56,70.35 693.12,56.00 695.35,56.00 696.79,56.00 699.02,56.00 700.46,68.30 702.69,58.05 704.24,58.05 706.47,58.05 707.91,58.05 710.14,66.25 711.58,66.25 713.81,66.25 715.36,66.25 717.59,60.10 719.03,74.45 721.26,60.10 722.70,60.10 724.93,60.10 726.48,56.00 728.71,56.00 730.15,56.00 732.38,70.35 733.82,70.35 736.05,70.35 737.61,70.35 739.83,70.35 741.28,62.15 743.50,56.00 744.95,56.00 747.17,56.00 748.73,56.00 750.95,56.00 752.40,56.00 754.62,64.20 756.18,56.00 758.40,62.15 759.85,56.00 762.07,56.00 763.52,56.00 765.74,66.25 767.30,66.25 769.52,56.00 770.97,56.00 773.19,56.00 774.64,56.00 776.86,56.00 778.42,56.00 780.64,82.65 782.09,90.85 784.31,62.15 785.76,60.10 787.98,60.10 789.54,56.00 791.77,56.00 793.21,56.00 795.44,68.30 796.88,58.05 799.11,66.25 800.66,66.25 802.89,78.55 804.33,72.40 806.56,64.20 808.78,64.20 810.23,78.55 812.45,78.55 814.01,82.65 816.23,68.30 817.68,68.30 819.90,62.15 821.46,62.15 823.68,62.15 825.13,62.15 827.35,62.15 828.80,62.15 831.02,56.00 832.58,56.00 834.80,56.00 836.25,56.00 838.47,56.00 839.92,56.00 842.14,56.00 843.70,56.00 845.93,56.00 847.37,56.00 849.60,56.00 851.04,70.35 853.27,94.95 854.82,72.40 857.05,72.40 858.49,66.25 860.72,72.40 862.16,64.20 864.39,56.00 865.94,64.20 868.17,56.00 869.61,56.00 871.84,56.00 873.28,88.80 875.51,94.95 877.06,94.95 879.29,94.95 880.73,99.05 882.96,66.25 884.52,80.60 886.74,58.05 888.19,66.25 890.41,56.00 891.86,56.00 894.08,66.25 895.64,66.25 897.86,66.25 899.31,56.00 901.53,74.45 902.98,68.30 905.20,78.55 906.76,60.10 908.98,60.10 910.43,56.00 912.65,66.25 914.10,66.25 916.32,72.40 917.88,78.55 920.10,78.55 921.55,66.25 923.77,64.20 925.22,64.20 927.44,72.40 929.00,56.00 931.22,56.00 932.67,64.20 934.89,56.00 936.34,56.00 938.56,56.00 940.12,62.15 942.35,62.15 943.79,66.25 946.02,76.50 947.57,58.05 949.80,56.00 951.24,56.00 953.47,56.00 954.91,56.00 957.14,76.50 958.69,68.30 960.92,60.10 962.36,56.00 964.59,72.40 966.03,72.40 968.26,56.00 969.81,56.00 972.04,56.00 973.48,56.00 975.71,56.00 977.15,68.30 979.38,68.30 980.94,74.45 983.16,56.00 984.61,70.35 986.83,80.60 988.28,56.00 990.50,62.15 992.06,68.30 994.28,56.00 995.73,56.00 997.95,56.00 999.40,56.00 1001.62,66.25 1003.18,70.35 1005.40,56.00 1006.85,56.00 1009.07,68.30 1010.52,56.00 1012.85,64.20 1014.30,64.20 1016.52,68.30 1017.97,70.35 1020.19,64.20 1021.75,64.20 1023.97,64.20 1025.42,72.40 1027.64,84.70 1029.09,64.20 1031.31,56.00 1032.87,66.25 1035.10,70.35 1036.54,66.25 1038.77,62.15 1040.21,62.15 1042.44,62.15 1043.99,90.85 1046.22,72.40 1047.66,72.40 1049.89,58.05 1051.33,58.05 1053.56,56.00 1055.11,56.00 1057.34,70.35 1058.78,70.35 1061.01,74.45 1062.45,86.75 1064.68,74.45 1066.23,76.50 1068.46,76.50 1069.90,56.00 1072.13,66.25 1073.57,56.00 1075.80,64.20 1077.36,64.20 1079.58,64.20 1081.03,74.45 1083.25,62.15 1084.81,84.70 1087.03,62.15 1088.48,62.15 1090.70,82.65 1092.15,82.65 1094.37,76.50 1095.93,72.40 1098.15,84.70 1099.60,84.70 1101.82,60.10 1103.27,60.10 1105.49,70.35 1107.05,56.00 1109.27,56.00 1110.72,56.00 1112.94,56.00 1114.39,66.25 1116.61,66.25 1118.17,62.15 1120.39,72.40 1121.84,64.20 1124.06,64.20 1125.51,64.20 1127.73,68.30 1129.29,76.50 1131.52,76.50 1132.96,56.00 1135.19,56.00 1136.63,56.00 1138.86,66.25 1140.41,56.00 1142.64,64.20 1144.08,64.20 1146.31,64.20 1147.86,56.00 1150.09,56.00 1151.53,64.20 1153.76,64.20 1155.20,64.20 1157.43,76.50 1158.98,76.50 1161.21,70.35 1162.65,60.10 1164.88,56.00 1166.32,56.00 1168.55,66.25 1170.11,78.55 1172.33,78.55 1173.78,74.45 1176.00,74.45" fill="none" stroke="#f59e0b" stroke-width="2" stroke-dasharray="6 4"/><polyline points="64.00,384.00 66.22,97.00 67.67,97.00 69.89,97.00 71.45,97.00 73.68,97.00 75.12,72.40 77.35,72.40 78.79,72.40 81.02,56.00 82.57,76.50 84.80,76.50 86.24,56.00 88.47,56.00 89.91,56.00 92.14,56.00 93.69,56.00 95.92,56.00 97.36,84.70 99.59,68.30 101.14,68.30 103.37,88.80 104.81,64.20 107.04,56.00 108.48,56.00 110.71,56.00 112.27,56.00 114.49,64.20 115.94,64.20 118.16,64.20 119.61,80.60 121.83,80.60 123.39,56.00 125.61,56.00 127.06,56.00 129.28,56.00 130.73,56.00 132.95,56.00 134.51,56.00 136.73,56.00 138.18,88.80 140.40,88.80 141.85,88.80 144.07,88.80 145.63,88.80 147.85,88.80 149.30,88.80 151.52,80.60 152.97,68.30 155.19,97.00 156.75,97.00 158.97,97.00 160.42,56.00 162.64,76.50 164.20,76.50 166.43,101.10 167.87,68.30 170.10,56.00 171.54,56.00 173.77,76.50 175.32,56.00 177.55,68.30 178.99,56.00 181.22,56.00 182.66,56.00 184.89,76.50 186.44,80.60 188.67,80.60 190.11,80.60 192.34,80.60 193.78,60.10 196.01,60.10 197.56,80.60 199.79,56.00 201.23,56.00 203.46,56.00 204.90,56.00 207.13,56.00 208.69,56.00 210.91,56.00 212.36,56.00 214.58,56.00 216.03,56.00 218.25,64.20 219.81,64.20 222.03,64.20 223.48,92.90 225.70,72.40 227.15,60.10 229.48,56.00 230.93,56.00 233.15,56.00 234.60,76.50 236.82,80.60 238.38,80.60 240.60,80.60 242.05,80.60 244.27,80.60 245.72,64.20 247.94,64.20 249.50,64.20 251.72,64.20 253.17,64.20 255.39,64.20 256.84,56.00 259.06,92.90 260.62,60.10 262.85,60.10 264.29,72.40 266.52,92.90 267.96,92.90 270.19,92.90 271.74,64.20 273.97,56.00 275.41,56.00 277.64,80.60 279.08,68.30 281.31,68.30 282.86,68.30 285.09,56.00 286.53,56.00 288.76,56.00 290.20,56.00 292.43,56.00 293.98,72.40 296.21,84.70 297.65,56.00 299.88,56.00 301.44,56.00 303.66,84.70 305.11,84.70 307.33,56.00 308.78,60.10 311.00,56.00 312.56,56.00 314.78,56.00 316.23,56.00 318.45,56.00 319.90,56.00 322.12,84.70 323.68,84.70 325.90,105.20 327.35,68.30 329.57,68.30 331.02,68.30 333.24,68.30 334.80,68.30 337.02,97.00 338.47,97.00 340.69,97.00 342.14,109.30 344.36,56.00 345.92,56.00 348.14,56.00 349.59,56.00 351.81,56.00 353.26,56.00 355.48,56.00 357.04,56.00 359.27,56.00 360.71,76.50 362.94,56.00 364.49,56.00 366.72,56.00 368.16,56.00 370.39,56.00 371.83,56.00 374.06,56.00 375.61,56.00 377.84,72.40 379.28,56.00 381.51,56.00 382.95,68.30 385.18,56.00 386.73,56.00 388.96,56.00 390.40,56.00 392.63,56.00 394.07,56.00 396.30,97.00 397.86,80.60 400.08,56.00 401.53,56.00 403.75,68.30 405.20,68.30 407.42,56.00 408.98,56.00 411.20,97.00 412.65,84.70 414.87,56.00 416.32,76.50 418.54,56.00 420.10,80.60 422.32,80.60 423.77,80.60 425.99,113.40 427.55,76.50 429.77,68.30 431.22,88.80 433.44,88.80 435.67,88.80 437.11,88.80 439.34,88.80 440.89,88.80 443.12,88.80 444.56,68.30 446.79,68.30 448.23,68.30 450.46,72.40 452.02,60.10 454.24,72.40 455.69,56.00 457.91,80.60 459.36,56.00 461.58,56.00 463.14,72.40 465.36,72.40 466.81,56.00 469.03,105.20 470.48,64.20 472.70,56.00 474.26,56.00 476.48,56.00 477.93,56.00 480.15,56.00 481.60,56.00 483.82,60.10 485.38,56.00 487.60,56.00 489.05,56.00 491.27,56.00 492.83,56.00 495.05,56.00 496.50,56.00 498.72,56.00 500.17,56.00 502.39,72.40 503.95,56.00 506.18,56.00 507.62,56.00 509.85,56.00 511.29,56.00 513.52,56.00 515.07,56.00 517.30,56.00 518.74,68.30 520.97,76.50 522.41,56.00 524.64,56.00 526.19,56.00 528.42,56.00 529.86,56.00 532.09,56.00 533.53,56.00 535.76,56.00 537.31,56.00 539.54,56.00 540.98,56.00 543.21,56.00 544.65,56.00 546.88,76.50 548.44,76.50 550.66,76.50 552.11,76.50 554.33,76.50 555.89,101.10 558.11,68.30 559.56,68.30 561.78,68.30 563.23,68.30 565.45,68.30 567.01,56.00 569.23,56.00 570.68,56.00 572.90,60.10 574.35,84.70 576.57,56.00 578.13,56.00 580.35,56.00 581.80,56.00 584.02,56.00 585.47,68.30 587.69,84.70 589.25,84.70 591.47,68.30 592.92,101.10 595.14,72.40 596.59,72.40 598.81,56.00 600.37,72.40 602.60,72.40 604.04,72.40 606.27,68.30 607.71,92.90 609.94,72.40 611.49,92.90 613.72,92.90 615.16,68.30 617.39,68.30 618.83,68.30 621.17,56.00 622.61,56.00 624.84,56.00 626.28,56.00 628.51,56.00 630.06,56.00 632.29,60.10 633.73,56.00 635.96,56.00 637.40,56.00 639.63,76.50 641.19,88.80 643.41,56.00 644.86,68.30 647.08,56.00 648.53,56.00 650.75,56.00 652.31,56.00 654.53,56.00 655.98,56.00 658.20,76.50 659.65,76.50 661.87,76.50 663.43,56.00 665.65,56.00 667.10,56.00 669.32,56.00 670.77,68.30 672.99,84.70 674.55,84.70 676.77,84.70 678.22,84.70 680.44,84.70 681.89,80.60 684.11,56.00 685.67,56.00 687.89,56.00 689.34,56.00 691.56,84.70 693.12,56.00 695.35,56.00 696.79,56.00 699.02,56.00 700.46,56.00 702.69,56.00 704.24,56.00 706.47,56.00 707.91,56.00 710.14,56.00 711.58,56.00 713.81,56.00 715.36,56.00 717.59,56.00 719.03,84.70 721.26,56.00 722.70,56.00 724.93,56.00 726.48,56.00 728.71,56.00 730.15,56.00 732.38,56.00 733.82,56.00 736.05,56.00 737.61,56.00 739.83,56.00 741.28,56.00 743.50,56.00 744.95,56.00 747.17,56.00 748.73,56.00 750.95,56.00 752.40,56.00 754.62,72.40 756.18,56.00 758.40,68.30 759.85,56.00 762.07,56.00 763.52,56.00 765.74,56.00 767.30,56.00 769.52,56.00 770.97,56.00 773.19,56.00 774.64,56.00 776.86,56.00 778.42,56.00 780.64,84.70 782.09,84.70 784.31,64.20 785.76,64.20 787.98,64.20 789.54,56.00 791.77,56.00 793.21,56.00 795.44,56.00 796.88,56.00 799.11,76.50 800.66,76.50 802.89,76.50 804.33,76.50 806.56,72.40 808.78,72.40 810.23,72.40 812.45,72.40 814.01,80.60 816.23,68.30 817.68,68.30 819.90,68.30 821.46,68.30 823.68,68.30 825.13,68.30 827.35,56.00 828.80,56.00 831.02,56.00 832.58,56.00 834.80,56.00 836.25,56.00 838.47,56.00 839.92,56.00 842.14,56.00 843.70,56.00 845.93,56.00 847.37,56.00 849.60,56.00 851.04,84.70 853.27,105.20 854.82,60.10 857.05,60.10 858.49,60.10 860.72,72.40 862.16,72.40 864.39,56.00 865.94,72.40 868.17,56.00 869.61,56.00 871.84,56.00 873.28,92.90 875.51,92.90 877.06,92.90 879.29,92.90 880.73,113.40 882.96,72.40 884.52,84.70 886.74,60.10 888.19,60.10 890.41,56.00 891.86,56.00 894.08,76.50 895.64,76.50 897.86,76.50 899.31,56.00 901.53,92.90 902.98,80.60 905.20,80.60 906.76,56.00 908.98,56.00 910.43,56.00 912.65,56.00 914.10,56.00 916.32,88.80 917.88,88.80 920.10,88.80 921.55,64.20 923.77,72.40 925.22,72.40 927.44,88.80 929.00,56.00 931.22,56.00 932.67,72.40 934.89,56.00 936.34,56.00 938.56,56.00 940.12,56.00 942.35,56.00 943.79,56.00 946.02,76.50 947.57,60.10 949.80,56.00 951.24,56.00 953.47,56.00 954.91,56.00 957.14,97.00 958.69,80.60 960.92,64.20 962.36,56.00 964.59,72.40 966.03,72.40 968.26,56.00 969.81,56.00 972.04,56.00 973.48,56.00 975.71,56.00 977.15,80.60 979.38,80.60 980.94,80.60 983.16,56.00 984.61,84.70 986.83,105.20 988.28,56.00 990.50,68.30 992.06,68.30 994.28,56.00 995.73,56.00 997.95,56.00 999.40,56.00 1001.62,56.00 1003.18,56.00 1005.40,56.00 1006.85,56.00 1009.07,80.60 1010.52,56.00 1012.85,56.00 1014.30,56.00 1016.52,56.00 1017.97,56.00 1020.19,56.00 1021.75,56.00 1023.97,56.00 1025.42,56.00 1027.64,56.00 1029.09,56.00 1031.31,56.00 1032.87,56.00 1035.10,64.20 1036.54,56.00 1038.77,68.30 1040.21,68.30 1042.44,68.30 1043.99,125.70 1046.22,88.80 1047.66,88.80 1049.89,60.10 1051.33,60.10 1053.56,56.00 1055.11,56.00 1057.34,84.70 1058.78,84.70 1061.01,92.90 1062.45,92.90 1064.68,92.90 1066.23,97.00 1068.46,97.00 1069.90,56.00 1072.13,56.00 1073.57,56.00 1075.80,72.40 1077.36,60.10 1079.58,60.10 1081.03,80.60 1083.25,56.00 1084.81,101.10 1087.03,68.30 1088.48,68.30 1090.70,92.90 1092.15,92.90 1094.37,64.20 1095.93,56.00 1098.15,80.60 1099.60,80.60 1101.82,64.20 1103.27,64.20 1105.49,56.00 1107.05,56.00 1109.27,56.00 1110.72,56.00 1112.94,56.00 1114.39,56.00 1116.61,76.50 1118.17,68.30 1120.39,88.80 1121.84,72.40 1124.06,72.40 1125.51,72.40 1127.73,56.00 1129.29,56.00 1131.52,56.00 1132.96,56.00 1135.19,56.00 1136.63,56.00 1138.86,76.50 1140.41,56.00 1142.64,56.00 1144.08,56.00 1146.31,56.00 1147.86,56.00 1150.09,56.00 1151.53,72.40 1153.76,72.40 1155.20,72.40 1157.43,97.00 1158.98,97.00 1161.21,84.70 1162.65,56.00 1164.88,56.00 1166.32,56.00 1168.55,76.50 1170.11,76.50 1172.33,76.50 1173.78,56.00 1176.00,56.00" fill="none" stroke="#34d399" stroke-width="1.1" opacity="0.24"/><polyline points="64.00,384.00 66.22,56.00 67.67,56.00 69.89,68.30 71.45,68.30 73.68,68.30 75.12,68.30 77.35,56.00 78.79,56.00 81.02,56.00 82.57,56.00 84.80,56.00 86.24,56.00 88.47,56.00 89.91,56.00 92.14,56.00 93.69,56.00 95.92,92.90 97.36,92.90 99.59,64.20 101.14,88.80 103.37,60.10 104.81,56.00 107.04,56.00 108.48,56.00 110.71,56.00 112.27,56.00 114.49,97.00 115.94,97.00 118.16,80.60 119.61,68.30 121.83,68.30 123.39,56.00 125.61,56.00 127.06,56.00 129.28,56.00 130.73,56.00 132.95,56.00 134.51,56.00 136.73,56.00 138.18,56.00 140.40,56.00 141.85,56.00 144.07,56.00 145.63,72.40 147.85,92.90 149.30,92.90 151.52,72.40 152.97,72.40 155.19,72.40 156.75,56.00 158.97,84.70 160.42,84.70 162.64,84.70 164.20,84.70 166.43,60.10 167.87,60.10 170.10,60.10 171.54,60.10 173.77,60.10 175.32,80.60 177.55,80.60 178.99,80.60 181.22,80.60 182.66,80.60 184.89,80.60 186.44,105.20 188.67,64.20 190.11,64.20 192.34,88.80 193.78,88.80 196.01,64.20 197.56,56.00 199.79,56.00 201.23,56.00 203.46,56.00 204.90,56.00 207.13,68.30 208.69,68.30 210.91,84.70 212.36,97.00 214.58,80.60 216.03,80.60 218.25,97.00 219.81,97.00 222.03,97.00 223.48,97.00 225.70,97.00 227.15,97.00 229.48,97.00 230.93,97.00 233.15,92.90 234.60,92.90 236.82,60.10 238.38,56.00 240.60,56.00 242.05,56.00 244.27,56.00 245.72,56.00 247.94,56.00 249.50,56.00 251.72,56.00 253.17,56.00 255.39,56.00 256.84,56.00 259.06,56.00 260.62,56.00 262.85,56.00 264.29,80.60 266.52,64.20 267.96,64.20 270.19,56.00 271.74,56.00 273.97,56.00 275.41,56.00 277.64,68.30 279.08,121.60 281.31,72.40 282.86,60.10 285.09,60.10 286.53,72.40 288.76,72.40 290.20,72.40 292.43,72.40 293.98,72.40 296.21,60.10 297.65,56.00 299.88,68.30 301.44,68.30 303.66,92.90 305.11,92.90 307.33,92.90 308.78,84.70 311.00,84.70 312.56,60.10 314.78,60.10 316.23,80.60 318.45,80.60 319.90,80.60 322.12,68.30 323.68,68.30 325.90,80.60 327.35,80.60 329.57,80.60 331.02,80.60 333.24,64.20 334.80,64.20 337.02,88.80 338.47,88.80 340.69,64.20 342.14,56.00 344.36,56.00 345.92,56.00 348.14,56.00 349.59,56.00 351.81,56.00 353.26,56.00 355.48,88.80 357.04,88.80 359.27,88.80 360.71,88.80 362.94,72.40 364.49,56.00 366.72,56.00 368.16,56.00 370.39,84.70 371.83,56.00 374.06,68.30 375.61,68.30 377.84,56.00 379.28,56.00 381.51,56.00 382.95,76.50 385.18,72.40 386.73,60.10 388.96,60.10 390.40,56.00 392.63,56.00 394.07,56.00 396.30,56.00 397.86,56.00 400.08,56.00 401.53,56.00 403.75,56.00 405.20,56.00 407.42,56.00 408.98,56.00 411.20,56.00 412.65,56.00 414.87,56.00 416.32,56.00 418.54,56.00 420.10,80.60 422.32,56.00 423.77,56.00 425.99,56.00 427.55,56.00 429.77,56.00 431.22,56.00 433.44,56.00 435.67,56.00 437.11,56.00 439.34,56.00 440.89,56.00 443.12,56.00 444.56,56.00 446.79,56.00 448.23,56.00 450.46,56.00 452.02,84.70 454.24,84.70 455.69,56.00 457.91,56.00 459.36,80.60 461.58,80.60 463.14,72.40 465.36,72.40 466.81,72.40 469.03,92.90 470.48,92.90 472.70,56.00 474.26,56.00 476.48,56.00 477.93,56.00 480.15,68.30 481.60,68.30 483.82,92.90 485.38,92.90 487.60,92.90 489.05,92.90 491.27,109.30 492.83,60.10 495.05,60.10 496.50,60.10 498.72,60.10 500.17,56.00 502.39,56.00 503.95,56.00 506.18,56.00 507.62,56.00 509.85,56.00 511.29,56.00 513.52,56.00 515.07,56.00 517.30,56.00 518.74,56.00 520.97,56.00 522.41,76.50 524.64,56.00 526.19,56.00 528.42,56.00 529.86,56.00 532.09,56.00 533.53,56.00 535.76,56.00 537.31,56.00 539.54,72.40 540.98,72.40 543.21,72.40 544.65,88.80 546.88,88.80 548.44,88.80 550.66,88.80 552.11,88.80 554.33,56.00 555.89,56.00 558.11,56.00 559.56,56.00 561.78,56.00 563.23,72.40 565.45,60.10 567.01,60.10 569.23,60.10 570.68,60.10 572.90,60.10 574.35,60.10 576.57,72.40 578.13,72.40 580.35,72.40 581.80,56.00 584.02,56.00 585.47,56.00 587.69,56.00 589.25,56.00 591.47,68.30 592.92,56.00 595.14,56.00 596.59,56.00 598.81,76.50 600.37,88.80 602.60,56.00 604.04,56.00 606.27,56.00 607.71,56.00 609.94,56.00 611.49,56.00 613.72,56.00 615.16,56.00 617.39,56.00 618.83,56.00 621.17,56.00 622.61,56.00 624.84,56.00 626.28,56.00 628.51,56.00 630.06,56.00 632.29,56.00 633.73,56.00 635.96,56.00 637.40,56.00 639.63,56.00 641.19,56.00 643.41,56.00 644.86,56.00 647.08,56.00 648.53,56.00 650.75,56.00 652.31,56.00 654.53,56.00 655.98,56.00 658.20,56.00 659.65,56.00 661.87,56.00 663.43,56.00 665.65,80.60 667.10,92.90 669.32,92.90 670.77,56.00 672.99,56.00 674.55,56.00 676.77,56.00 678.22,56.00 680.44,56.00 681.89,56.00 684.11,84.70 685.67,56.00 687.89,56.00 689.34,56.00 691.56,56.00 693.12,56.00 695.35,56.00 696.79,56.00 699.02,56.00 700.46,80.60 702.69,60.10 704.24,60.10 706.47,60.10 707.91,60.10 710.14,76.50 711.58,76.50 713.81,76.50 715.36,76.50 717.59,64.20 719.03,64.20 721.26,64.20 722.70,64.20 724.93,64.20 726.48,56.00 728.71,56.00 730.15,56.00 732.38,84.70 733.82,84.70 736.05,84.70 737.61,84.70 739.83,84.70 741.28,68.30 743.50,56.00 744.95,56.00 747.17,56.00 748.73,56.00 750.95,56.00 752.40,56.00 754.62,56.00 756.18,56.00 758.40,56.00 759.85,56.00 762.07,56.00 763.52,56.00 765.74,76.50 767.30,76.50 769.52,56.00 770.97,56.00 773.19,56.00 774.64,56.00 776.86,56.00 778.42,56.00 780.64,80.60 782.09,97.00 784.31,60.10 785.76,56.00 787.98,56.00 789.54,56.00 791.77,56.00 793.21,56.00 795.44,80.60 796.88,60.10 799.11,56.00 800.66,56.00 802.89,80.60 804.33,68.30 806.56,56.00 808.78,56.00 810.23,84.70 812.45,84.70 814.01,84.70 816.23,68.30 817.68,68.30 819.90,56.00 821.46,56.00 823.68,56.00 825.13,56.00 827.35,68.30 828.80,68.30 831.02,56.00 832.58,56.00 834.80,56.00 836.25,56.00 838.47,56.00 839.92,56.00 842.14,56.00 843.70,56.00 845.93,56.00 847.37,56.00 849.60,56.00 851.04,56.00 853.27,84.70 854.82,84.70 857.05,84.70 858.49,72.40 860.72,72.40 862.16,56.00 864.39,56.00 865.94,56.00 868.17,56.00 869.61,56.00 871.84,56.00 873.28,84.70 875.51,97.00 877.06,97.00 879.29,97.00 880.73,84.70 882.96,60.10 884.52,76.50 886.74,56.00 888.19,72.40 890.41,56.00 891.86,56.00 894.08,56.00 895.64,56.00 897.86,56.00 899.31,56.00 901.53,56.00 902.98,56.00 905.20,76.50 906.76,64.20 908.98,64.20 910.43,56.00 912.65,76.50 914.10,76.50 916.32,56.00 917.88,68.30 920.10,68.30 921.55,68.30 923.77,56.00 925.22,56.00 927.44,56.00 929.00,56.00 931.22,56.00 932.67,56.00 934.89,56.00 936.34,56.00 938.56,56.00 940.12,68.30 942.35,68.30 943.79,76.50 946.02,76.50 947.57,56.00 949.80,56.00 951.24,56.00 953.47,56.00 954.91,56.00 957.14,56.00 958.69,56.00 960.92,56.00 962.36,56.00 964.59,72.40 966.03,72.40 968.26,56.00 969.81,56.00 972.04,56.00 973.48,56.00 975.71,56.00 977.15,56.00 979.38,56.00 980.94,68.30 983.16,56.00 984.61,56.00 986.83,56.00 988.28,56.00 990.50,56.00 992.06,68.30 994.28,56.00 995.73,56.00 997.95,56.00 999.40,56.00 1001.62,76.50 1003.18,84.70 1005.40,56.00 1006.85,56.00 1009.07,56.00 1010.52,56.00 1012.85,72.40 1014.30,72.40 1016.52,80.60 1017.97,84.70 1020.19,72.40 1021.75,72.40 1023.97,72.40 1025.42,88.80 1027.64,113.40 1029.09,72.40 1031.31,56.00 1032.87,76.50 1035.10,76.50 1036.54,76.50 1038.77,56.00 1040.21,56.00 1042.44,56.00 1043.99,56.00 1046.22,56.00 1047.66,56.00 1049.89,56.00 1051.33,56.00 1053.56,56.00 1055.11,56.00 1057.34,56.00 1058.78,56.00 1061.01,56.00 1062.45,80.60 1064.68,56.00 1066.23,56.00 1068.46,56.00 1069.90,56.00 1072.13,76.50 1073.57,56.00 1075.80,56.00 1077.36,68.30 1079.58,68.30 1081.03,68.30 1083.25,68.30 1084.81,68.30 1087.03,56.00 1088.48,56.00 1090.70,72.40 1092.15,72.40 1094.37,88.80 1095.93,88.80 1098.15,88.80 1099.60,88.80 1101.82,56.00 1103.27,56.00 1105.49,84.70 1107.05,56.00 1109.27,56.00 1110.72,56.00 1112.94,56.00 1114.39,76.50 1116.61,56.00 1118.17,56.00 1120.39,56.00 1121.84,56.00 1124.06,56.00 1125.51,56.00 1127.73,80.60 1129.29,97.00 1131.52,97.00 1132.96,56.00 1135.19,56.00 1136.63,56.00 1138.86,56.00 1140.41,56.00 1142.64,72.40 1144.08,72.40 1146.31,72.40 1147.86,56.00 1150.09,56.00 1151.53,56.00 1153.76,56.00 1155.20,56.00 1157.43,56.00 1158.98,56.00 1161.21,56.00 1162.65,64.20 1164.88,56.00 1166.32,56.00 1168.55,56.00 1170.11,80.60 1172.33,80.60 1173.78,92.90 1176.00,92.90" fill="none" stroke="#34d399" stroke-width="1.1" opacity="0.24"/><rect x="76" y="64" width="16" height="10" fill="#60a5fa" opacity="0.18"/><text x="98" y="74" fill="#d1d5db" font-size="12" font-family="system-ui, sans-serif">P05-P95</text><rect x="172" y="64" width="16" height="10" fill="#3b82f6" opacity="0.28"/><text x="194" y="74" fill="#d1d5db" font-size="12" font-family="system-ui, sans-serif">P25-P75</text><line x1="270" y1="69" x2="286" y2="69" stroke="#f8fafc" stroke-width="2"/><text x="292" y="74" fill="#d1d5db" font-size="12" font-family="system-ui, sans-serif">Median</text><line x1="354" y1="69" x2="370" y2="69" stroke="#f59e0b" stroke-width="2" stroke-dasharray="6 4"/><text x="376" y="74" fill="#d1d5db" font-size="12" font-family="system-ui, sans-serif">Mean</text></svg>