<svg xmlns="http://www.w3.org/2000/svg" width="1200" height="420" viewBox="0 0 1200 420"><rect width="100%" height="100%" fill="#101113"/><text x="64" y="28" fill="#f3f4f6" font-size="22" font-family="system-ui, sans-serif">INTARIAN_PEPPER_ROOT MTM PnL Bands</text><text x="64" y="46" fill="#9ca3af" font-size="13" font-family="system-ui, sans-serif">1 persisted session traces • overlays show first 1 sessions</text><rect x="64" y="56" width="1112" height="328" fill="#141517" stroke="#2c2e33"/><line x1="64" y1="384.00" x2="1176" y2="384.00" stroke="#25262b" stroke-width="1"/><text x="54" y="388.00" fill="#9ca3af" font-size="12" text-anchor="end" font-family="system-ui, sans-serif">-376.00</text><line x1="64" y1="220.00" x2="1176" y2="220.00" stroke="#25262b" stroke-width="1"/><text x="54" y="224.00" fill="#9ca3af" font-size="12" text-anchor="end" font-family="system-ui, sans-serif">41821.00</text><line x1="64" y1="56.00" x2="1176" y2="56.00" stroke="#25262b" stroke-width="1"/><text x="54" y="60.00" fill="#9ca3af" font-size="12" text-anchor="end" font-family="system-ui, sans-serif">84018.00</text><line x1="64.00" y1="56" x2="64.00" y2="384" stroke="#25262b" stroke-width="1"/><text x="64.00" y="402" fill="#9ca3af" font-size="12" text-anchor="middle" font-family="system-ui, sans-serif">0</text><line x1="621.17" y1="56" x2="621.17" y2="384" stroke="#25262b" stroke-width="1"/><text x="621.17" y="402" fill="#9ca3af" font-size="12" text-anchor="middle" font-family="system-ui, sans-serif">501000</text><line x1="1176.00" y1="56" x2="1176.00" y2="384" stroke="#25262b" stroke-width="1"/><text x="1176.00" y="402" fill="#9ca3af" font-size="12" text-anchor="middle" font-family="system-ui, sans-serif">999900</text><polygon points="64.00,382.54 66.22,384.00 67.67,383.64 69.89,383.09 71.45,382.70 73.68,382.15 75.12,381.65 77.35,381.05 78.79,380.66 81.02,380.00 82.57,379.47 84.80,378.88 86.24,378.41 88.47,377.85 89.91,377.45 92.14,376.83 93.69,376.39 95.92,375.77 97.36,375.15 99.59,374.68 101.14,374.27 103.37,373.52 104.81,373.27 107.04,372.59 108.48,372.18 110.71,371.56 112.27,371.13 114.49,370.17 115.94,369.78 118.16,369.17 119.61,368.68 121.83,368.11 123.39,367.58 125.61,366.96 127.06,366.55 129.28,365.93 130.73,365.53 132.95,364.91 134.51,364.47 136.73,363.85 138.18,363.28 140.40,362.72 141.85,362.36 144.07,361.80 145.63,361.40 147.85,360.84 149.30,360.48 151.52,360.00 152.97,359.38 155.19,358.64 156.75,358.26 158.97,357.72 160.42,357.36 162.64,356.63 164.20,356.22 166.43,355.53 167.87,355.36 170.10,354.68 171.54,354.28 173.77,353.55 175.32,353.04 177.55,352.38 178.99,351.94 181.22,351.31 182.66,350.91 184.89,350.19 186.44,349.59 188.67,349.02 190.11,348.65 192.34,348.07 193.78,347.57 196.01,346.95 197.56,346.43 199.79,345.71 201.23,345.31 203.46,344.68 204.90,344.28 207.13,343.66 208.69,343.22 210.91,342.60 212.36,342.20 214.58,341.57 216.03,341.17 218.25,340.36 219.81,339.94 222.03,339.33 223.48,338.78 225.70,338.35 227.15,337.90 229.48,337.23 230.93,336.83 233.15,336.20 234.60,335.69 236.82,334.82 238.38,334.42 240.60,333.84 242.05,333.47 244.27,332.89 245.72,332.42 247.94,331.81 249.50,331.39 251.72,330.78 253.17,330.39 255.39,329.78 256.84,329.34 259.06,328.56 260.62,328.05 262.85,327.44 264.29,326.94 266.52,326.32 267.96,325.96 270.19,325.41 271.74,324.31 273.97,323.64 275.41,323.24 277.64,322.53 279.08,322.32 281.31,321.72 282.86,321.30 285.09,320.65 286.53,320.25 288.76,319.62 290.20,319.22 292.43,318.60 293.98,318.10 296.21,317.31 297.65,316.77 299.88,316.15 301.44,315.71 303.66,315.00 305.11,314.63 307.33,313.77 308.78,313.13 311.00,312.49 312.56,312.05 314.78,311.43 316.23,311.03 318.45,310.40 319.90,310.00 322.12,309.25 323.68,308.85 325.90,308.13 327.35,307.97 329.57,307.23 331.02,306.85 333.24,306.25 334.80,305.83 337.02,305.03 338.47,304.67 340.69,304.13 342.14,303.71 344.36,303.20 345.92,302.76 348.14,302.14 349.59,301.74 351.81,301.12 353.26,300.71 355.48,300.09 357.04,299.65 359.27,299.03 360.71,298.47 362.94,297.75 364.49,297.32 366.72,296.70 368.16,296.29 370.39,295.67 371.83,295.27 374.06,294.64 375.61,294.21 377.84,293.51 379.28,293.06 381.51,292.18 382.95,291.51 385.18,290.85 386.73,290.41 388.96,289.79 390.40,289.39 392.63,288.76 394.07,288.11 396.30,287.24 397.86,286.76 400.08,286.04 401.53,285.64 403.75,284.97 405.20,284.58 407.42,283.90 408.98,283.46 411.20,282.55 412.65,282.29 414.87,281.57 416.32,281.07 418.54,280.28 420.10,279.71 422.32,279.13 423.77,278.76 425.99,278.01 427.55,277.86 429.77,277.09 431.22,276.55 433.44,275.99 435.67,275.43 437.11,275.06 439.34,274.50 440.89,274.11 443.12,273.55 444.56,273.31 446.79,272.72 448.23,272.33 450.46,271.58 452.02,271.10 454.24,270.40 455.69,269.95 457.91,269.24 459.36,268.98 461.58,268.36 463.14,267.80 465.36,267.20 466.81,266.72 469.03,265.85 470.48,265.72 472.70,265.06 474.26,264.63 476.48,264.01 477.93,263.60 480.15,262.98 481.60,262.58 483.82,261.80 485.38,261.35 487.60,260.73 489.05,260.33 491.27,259.43 492.83,259.00 495.05,258.38 496.50,257.97 498.72,257.35 500.17,256.95 502.39,256.19 503.95,255.69 506.18,255.06 507.62,254.66 509.85,254.04 511.29,253.63 513.52,253.01 515.07,252.58 517.30,251.96 518.74,251.49 520.97,250.71 522.41,250.21 524.64,249.59 526.19,249.16 528.42,248.53 529.86,248.13 532.09,247.51 533.53,247.10 535.76,246.48 537.31,246.05 539.54,245.43 540.98,245.02 543.21,244.40 544.65,244.00 546.88,243.30 548.44,242.89 550.66,242.31 552.11,241.93 554.33,241.35 555.89,240.81 558.11,240.42 559.56,240.03 561.78,239.43 563.23,239.04 565.45,238.44 567.01,237.98 569.23,237.36 570.68,236.96 572.90,236.12 574.35,235.61 576.57,235.22 578.13,234.79 580.35,234.17 581.80,233.76 584.02,233.14 585.47,232.51 587.69,231.70 589.25,231.30 591.47,230.84 592.92,230.03 595.14,229.32 596.59,228.93 598.81,228.25 600.37,227.74 602.60,227.15 604.04,226.77 606.27,225.82 607.71,225.24 609.94,224.81 611.49,224.31 613.72,223.76 615.16,223.24 617.39,222.65 618.83,222.26 621.17,221.73 622.61,221.33 624.84,220.70 626.28,220.30 628.51,219.68 630.06,219.24 632.29,218.37 633.73,217.94 635.96,217.32 637.40,216.92 639.63,216.19 641.19,215.72 643.41,215.01 644.86,214.52 647.08,213.65 648.53,213.24 650.75,212.33 652.31,211.90 654.53,211.27 655.98,210.87 658.20,210.16 659.65,209.78 661.87,209.20 663.43,208.67 665.65,208.05 667.10,207.64 669.32,207.02 670.77,206.56 672.99,205.55 674.55,205.15 676.77,204.58 678.22,204.21 680.44,203.65 681.89,203.20 684.11,202.49 685.67,202.06 687.89,201.43 689.34,201.03 691.56,200.28 693.12,199.73 695.35,199.11 696.79,198.70 699.02,198.08 700.46,197.68 702.69,196.76 704.24,196.33 706.47,195.71 707.91,195.30 710.14,194.68 711.58,194.28 713.81,193.65 715.36,193.22 717.59,192.60 719.03,192.08 721.26,191.35 722.70,190.95 724.93,190.33 726.48,189.89 728.71,189.27 730.15,188.86 732.38,188.24 733.82,187.84 736.05,187.22 737.61,186.78 739.83,186.16 741.28,185.76 743.50,185.13 744.95,184.73 747.17,184.11 748.73,183.67 750.95,183.05 752.40,182.65 754.62,181.95 756.18,181.47 758.40,180.79 759.85,180.33 762.07,179.71 763.52,179.31 765.74,178.69 767.30,178.25 769.52,177.63 770.97,177.22 773.19,176.60 774.64,176.20 776.86,175.58 778.42,175.14 780.64,174.37 782.09,174.00 784.31,173.30 785.76,172.91 787.98,172.30 789.54,171.84 791.77,171.22 793.21,170.82 795.44,170.19 796.88,169.79 799.11,169.07 800.66,168.66 802.89,167.95 804.33,167.57 806.56,166.73 808.78,166.14 810.23,165.76 812.45,165.16 814.01,164.78 816.23,163.97 817.68,163.58 819.90,162.98 821.46,162.57 823.68,161.68 825.13,161.29 827.35,160.59 828.80,160.18 831.02,159.56 832.58,159.13 834.80,158.50 836.25,158.10 838.47,157.28 839.92,156.88 842.14,156.26 843.70,155.82 845.93,155.20 847.37,154.80 849.60,153.99 851.04,153.44 853.27,152.77 854.82,152.61 857.05,151.99 858.49,151.59 860.72,150.93 862.16,150.54 864.39,149.79 865.94,149.23 868.17,148.21 869.61,147.81 871.84,147.19 873.28,146.60 875.51,146.04 877.06,145.66 879.29,145.11 880.73,144.66 882.96,144.32 884.52,143.69 886.74,143.01 888.19,142.62 890.41,141.98 891.86,141.57 894.08,140.78 895.64,140.38 897.86,139.79 899.31,139.30 901.53,138.53 902.98,138.11 905.20,137.50 906.76,136.80 908.98,136.18 910.43,135.77 912.65,135.15 914.10,134.75 916.32,133.98 917.88,133.59 920.10,133.03 921.55,132.59 923.77,131.81 925.22,131.42 927.44,130.76 929.00,130.22 931.22,129.60 932.67,129.10 934.89,128.36 936.34,127.95 938.56,127.33 940.12,126.89 942.35,126.27 943.79,125.87 946.02,125.11 947.57,124.43 949.80,123.62 951.24,123.21 953.47,122.59 954.91,122.19 957.14,121.25 958.69,120.77 960.92,120.35 962.36,119.91 964.59,119.23 966.03,118.84 968.26,118.16 969.81,117.72 972.04,117.10 973.48,116.70 975.71,116.07 977.15,115.56 979.38,114.98 980.94,114.58 983.16,113.87 984.61,113.27 986.83,112.60 988.28,112.32 990.50,111.65 992.06,111.23 994.28,110.56 995.73,110.15 997.95,109.53 999.40,109.13 1001.62,108.50 1003.18,108.07 1005.40,107.21 1006.85,106.81 1009.07,106.07 1010.52,105.89 1012.85,105.24 1014.30,104.83 1016.52,104.21 1017.97,103.81 1020.19,103.19 1021.75,102.75 1023.97,102.13 1025.42,101.73 1027.64,101.10 1029.09,100.70 1031.31,100.08 1032.87,99.64 1035.10,98.71 1036.54,98.28 1038.77,97.32 1040.21,96.93 1042.44,96.06 1043.99,95.38 1046.22,95.06 1047.66,94.69 1049.89,93.99 1051.33,93.59 1053.56,92.95 1055.11,92.51 1057.34,91.68 1058.78,91.31 1061.01,90.52 1062.45,90.16 1064.68,89.61 1066.23,89.14 1068.46,88.60 1069.90,88.01 1072.13,87.38 1073.57,86.98 1075.80,86.01 1077.36,85.48 1079.58,84.87 1081.03,84.38 1083.25,83.65 1084.81,82.87 1087.03,82.49 1088.48,82.10 1090.70,81.37 1092.15,81.01 1094.37,80.02 1095.93,79.54 1098.15,78.80 1099.60,78.43 1101.82,77.76 1103.27,77.36 1105.49,76.72 1107.05,76.29 1109.27,75.67 1110.72,75.26 1112.94,74.64 1114.39,74.24 1116.61,73.51 1118.17,72.84 1120.39,72.16 1121.84,71.70 1124.06,71.11 1125.51,70.73 1127.73,70.03 1129.29,69.60 1131.52,68.98 1132.96,68.57 1135.19,67.95 1136.63,67.55 1138.86,66.84 1140.41,66.35 1142.64,65.73 1144.08,65.33 1146.31,64.71 1147.86,64.27 1150.09,63.65 1151.53,63.18 1153.76,62.59 1155.20,62.21 1157.43,61.30 1158.98,60.92 1161.21,60.33 1162.65,59.83 1164.88,59.21 1166.32,58.80 1168.55,58.11 1170.11,57.70 1172.33,57.12 1173.78,56.62 1176.00,56.00 1176.00,56.00 1173.78,56.62 1172.33,57.12 1170.11,57.70 1168.55,58.11 1166.32,58.80 1164.88,59.21 1162.65,59.83 1161.21,60.33 1158.98,60.92 1157.43,61.30 1155.20,62.21 1153.76,62.59 1151.53,63.18 1150.09,63.65 1147.86,64.27 1146.31,64.71 1144.08,65.33 1142.64,65.73 1140.41,66.35 1138.86,66.84 1136.63,67.55 1135.19,67.95 1132.96,68.57 1131.52,68.98 1129.29,69.60 1127.73,70.03 1125.51,70.73 1124.06,71.11 1121.84,71.70 1120.39,72.16 1118.17,72.84 1116.61,73.51 1114.39,74.24 1112.94,74.64 1110.72,75.26 1109.27,75.67 1107.05,76.29 1105.49,76.72 1103.27,77.36 1101.82,77.76 1099.60,78.43 1098.15,78.80 1095.93,79.54 1094.37,80.02 1092.15,81.01 1090.70,81.37 1088.48,82.10 1087.03,82.49 1084.81,82.87 1083.25,83.65 1081.03,84.38 1079.58,84.87 1077.36,85.48 1075.80,86.01 1073.57,86.98 1072.13,87.38 1069.90,88.01 1068.46,88.60 1066.23,89.14 1064.68,89.61 1062.45,90.16 1061.01,90.52 1058.78,91.31 1057.34,91.68 1055.11,92.51 1053.56,92.95 1051.33,93.59 1049.89,93.99 1047.66,94.69 1046.22,95.06 1043.99,95.38 1042.44,96.06 1040.21,96.93 1038.77,97.32 1036.54,98.28 1035.10,98.71 1032.87,99.64 1031.31,100.08 1029.09,100.70 1027.64,101.10 1025.42,101.73 1023.97,102.13 1021.75,102.75 1020.19,103.19 1017.97,103.81 1016.52,104.21 1014.30,104.83 1012.85,105.24 1010.52,105.89 1009.07,106.07 1006.85,106.81 1005.40,107.21 1003.18,108.07 1001.62,108.50 999.40,109.13 997.95,109.53 995.73,110.15 994.28,110.56 992.06,111.23 990.50,111.65 988.28,112.32 986.83,112.60 984.61,113.27 983.16,113.87 980.94,114.58 979.38,114.98 977.15,115.56 975.71,116.07 973.48,116.70 972.04,117.10 969.81,117.72 968.26,118.16 966.03,118.84 964.59,119.23 962.36,119.91 960.92,120.35 958.69,120.77 957.14,121.25 954.91,122.19 953.47,122.59 951.24,123.21 949.80,123.62 947.57,124.43 946.02,125.11 943.79,125.87 942.35,126.27 940.12,126.89 938.56,127.33 936.34,127.95 934.89,128.36 932.67,129.10 931.22,129.60 929.00,130.22 927.44,130.76 925.22,131.42 923.77,131.81 921.55,132.59 920.10,133.03 917.88,133.59 916.32,133.98 914.10,134.75 912.65,135.15 910.43,135.77 908.98,136.18 906.76,136.80 905.20,137.50 902.98,138.11 901.53,138.53 899.31,139.30 897.86,139.79 895.64,140.38 894.08,140.78 891.86,141.57 890.41,141.98 888.19,142.62 886.74,143.01 884.52,143.69 882.96,144.32 880.73,144.66 879.29,145.11 877.06,145.66 875.51,146.04 873.28,146.60 871.84,147.19 869.61,147.81 868.17,148.21 865.94,149.23 864.39,149.79 862.16,150.54 860.72,150.93 858.49,151.59 857.05,151.99 854.82,152.61 853.27,152.77 851.04,153.44 849.60,153.99 847.37,154.80 845.93,155.20 843.70,155.82 842.14,156.26 839.92,156.88 838.47,157.28 836.25,158.10 834.80,158.50 832.58,159.13 831.02,159.56 828.80,160.18 827.35,160.59 825.13,161.29 823.68,161.68 821.46,162.57 819.90,162.98 817.68,163.58 816.23,163.97 814.01,164.78 812.45,165.16 810.23,165.76 808.78,166.14 806.56,166.73 804.33,167.57 802.89,167.95 800.66,168.66 799.11,169.07 796.88,169.79 795.44,170.19 793.21,170.82 791.77,171.22 789.54,171.84 787.98,172.30 785.76,172.91 784.31,173.30 782.09,174.00 780.64,174.37 778.42,175.14 776.86,175.58 774.64,176.20 773.19,176.60 770.97,177.22 769.52,177.63 767.30,178.25 765.74,178.69 763.52,179.31 762.07,179.71 759.85,180.33 758.40,180.79 756.18,181.47 754.62,181.95 752.40,182.65 750.95,183.05 748.73,183.67 747.17,184.11 744.95,184.73 743.50,185.13 741.28,185.76 739.83,186.16 737.61,186.78 736.05,187.22 733.82,187.84 732.38,188.24 730.15,188.86 728.71,189.27 726.48,189.89 724.93,190.33 722.70,190.95 721.26,191.35 719.03,192.08 717.59,192.60 715.36,193.22 713.81,193.65 711.58,194.28 710.14,194.68 707.91,195.30 706.47,195.71 704.24,196.33 702.69,196.76 700.46,197.68 699.02,198.08 696.79,198.70 695.35,199.11 693.12,199.73 691.56,200.28 689.34,201.03 687.89,201.43 685.67,202.06 684.11,202.49 681.89,203.20 680.44,203.65 678.22,204.21 676.77,204.58 674.55,205.15 672.99,205.55 670.77,206.56 669.32,207.02 667.10,207.64 665.65,208.05 663.43,208.67 661.87,209.20 659.65,209.78 658.20,210.16 655.98,210.87 654.53,211.27 652.31,211.90 650.75,212.33 648.53,213.24 647.08,213.65 644.86,214.52 643.41,215.01 641.19,215.72 639.63,216.19 637.40,216.92 635.96,217.32 633.73,217.94 632.29,218.37 630.06,219.24 628.51,219.68 626.28,220.30 624.84,220.70 622.61,221.33 621.17,221.73 618.83,222.26 617.39,222.65 615.16,223.24 613.72,223.76 611.49,224.31 609.94,224.81 607.71,225.24 606.27,225.82 604.04,226.77 602.60,227.15 600.37,227.74 598.81,228.25 596.59,228.93 595.14,229.32 592.92,230.03 591.47,230.84 589.25,231.30 587.69,231.70 585.47,232.51 584.02,233.14 581.80,233.76 580.35,234.17 578.13,234.79 576.57,235.22 574.35,235.61 572.90,236.12 570.68,236.96 569.23,237.36 567.01,237.98 565.45,238.44 563.23,239.04 561.78,239.43 559.56,240.03 558.11,240.42 555.89,240.81 554.33,241.35 552.11,241.93 550.66,242.31 548.44,242.89 546.88,243.30 544.65,244.00 543.21,244.40 540.98,245.02 539.54,245.43 537.31,246.05 535.76,246.48 533.53,247.10 532.09,247.51 529.86,248.13 528.42,248.53 526.19,249.16 524.64,249.59 522.41,250.21 520.97,250.71 518.74,251.49 517.30,251.96 515.07,252.58 513.52,253.01 511.29,253.63 509.85,254.04 507.62,254.66 506.18,255.06 503.95,255.69 502.39,256.19 500.17,256.95 498.72,257.35 496.50,257.97 495.05,258.38 492.83,259.00 491.27,259.43 489.05,260.33 487.60,260.73 485.38,261.35 483.82,261.80 481.60,262.58 480.15,262.98 477.93,263.60 476.48,264.01 474.26,264.63 472.70,265.06 470.48,265.72 469.03,265.85 466.81,266.72 465.36,267.20 463.14,267.80 461.58,268.36 459.36,268.98 457.91,269.24 455.69,269.95 454.24,270.40 452.02,271.10 450.46,271.58 448.23,272.33 446.79,272.72 444.56,273.31 443.12,273.55 440.89,274.11 439.34,274.50 437.11,275.06 435.67,275.43 433.44,275.99 431.22,276.55 429.77,277.09 427.55,277.86 425.99,278.01 423.77,278.76 422.32,279.13 420.10,279.71 418.54,280.28 416.32,281.07 414.87,281.57 412.65,282.29 411.20,282.55 408.98,283.46 407.42,283.90 405.20,284.58 403.75,284.97 401.53,285.64 400.08,286.04 397.86,286.76 396.30,287.24 394.07,288.11 392.63,288.76 390.40,289.39 388.96,289.79 386.73,290.41 385.18,290.85 382.95,291.51 381.51,292.18 379.28,293.06 377.84,293.51 375.61,294.21 374.06,294.64 371.83,295.27 370.39,295.67 368.16,296.29 366.72,296.70 364.49,297.32 362.94,297.75 360.71,298.47 359.27,299.03 357.04,299.65 355.48,300.09 353.26,300.71 351.81,301.12 349.59,301.74 348.14,302.14 345.92,302.76 344.36,303.20 342.14,303.71 340.69,304.13 338.47,304.67 337.02,305.03 334.80,305.83 333.24,306.25 331.02,306.85 329.57,307.23 327.35,307.97 325.90,308.13 323.68,308.85 322.12,309.25 319.90,310.00 318.45,310.40 316.23,311.03 314.78,311.43 312.56,312.05 311.00,312.49 308.78,313.13 307.33,313.77 305.11,314.63 303.66,315.00 301.44,315.71 299.88,316.15 297.65,316.77 296.21,317.31 293.98,318.10 292.43,318.60 290.20,319.22 288.76,319.62 286.53,320.25 285.09,320.65 282.86,321.30 281.31,321.72 279.08,322.32 277.64,322.53 275.41,323.24 273.97,323.64 271.74,324.31 270.19,325.41 267.96,325.96 266.52,326.32 264.29,326.94 262.85,327.44 260.62,328.05 259.06,328.56 256.84,329.34 255.39,329.78 253.17,330.39 251.72,330.78 249.50,331.39 247.94,331.81 245.72,332.42 244.27,332.89 242.05,333.47 240.60,333.84 238.38,334.42 236.82,334.82 234.60,335.69 233.15,336.20 230.93,336.83 229.48,337.23 227.15,337.90 225.70,338.35 223.48,338.78 222.03,339.33 219.81,339.94 218.25,340.36 216.03,341.17 214.58,341.57 212.36,342.20 210.91,342.60 208.69,343.22 207.13,343.66 204.90,344.28 203.46,344.68 201.23,345.31 199.79,345.71 197.56,346.43 196.01,346.95 193.78,347.57 192.34,348.07 190.11,348.65 188.67,349.02 186.44,349.59 184.89,350.19 182.66,350.91 181.22,351.31 178.99,351.94 177.55,352.38 175.32,353.04 173.77,353.55 171.54,354.28 170.10,354.68 167.87,355.36 166.43,355.53 164.20,356.22 162.64,356.63 160.42,357.36 158.97,357.72 156.75,358.26 155.19,358.64 152.97,359.38 151.52,360.00 149.30,360.48 147.85,360.84 145.63,361.40 144.07,361.80 141.85,362.36 140.40,362.72 138.18,363.28 136.73,363.85 134.51,364.47 132.95,364.91 130.73,365.53 129.28,365.93 127.06,366.55 125.61,366.96 123.39,367.58 121.83,368.11 119.61,368.68 118.16,369.17 115.94,369.78 114.49,370.17 112.27,371.13 110.71,371.56 108.48,372.18 107.04,372.59 104.81,373.27 103.37,373.52 101.14,374.27 99.59,374.68 97.36,375.15 95.92,375.77 93.69,376.39 92.14,376.83 89.91,377.45 88.47,377.85 86.24,378.41 84.80,378.88 82.57,379.47 81.02,380.00 78.79,380.66 77.35,381.05 75.12,381.65 73.68,382.15 71.45,382.70 69.89,383.09 67.67,383.64 66.22,384.00 64.00,382.54" fill="#60a5fa" opacity="0.18"/><polygon points="64.00,382.54 66.22,384.00 67.67,383.64 69.89,383.09 71.45,382.70 73.68,382.15 75.12,381.65 77.35,381.05 78.79,380.66 81.02,380.00 82.57,379.47 84.80,378.88 86.24,378.41 88.47,377.85 89.91,377.45 92.14,376.83 93.69,376.39 95.92,375.77 97.36,375.15 99.59,374.68 101.14,374.27 103.37,373.52 104.81,373.27 107.04,372.59 108.48,372.18 110.71,371.56 112.27,371.13 114.49,370.17 115.94,369.78 118.16,369.17 119.61,368.68 121.83,368.11 123.39,367.58 125.61,366.96 127.06,366.55 129.28,365.93 130.73,365.53 132.95,364.91 134.51,364.47 136.73,363.85 138.18,363.28 140.40,362.72 141.85,362.36 144.07,361.80 145.63,361.40 147.85,360.84 149.30,360.48 151.52,360.00 152.97,359.38 155.19,358.64 156.75,358.26 158.97,357.72 160.42,357.36 162.64,356.63 164.20,356.22 166.43,355.53 167.87,355.36 170.10,354.68 171.54,354.28 173.77,353.55 175.32,353.04 177.55,352.38 178.99,351.94 181.22,351.31 182.66,350.91 184.89,350.19 186.44,349.59 188.67,349.02 190.11,348.65 192.34,348.07 193.78,347.57 196.01,346.95 197.56,346.43 199.79,345.71 201.23,345.31 203.46,344.68 204.90,344.28 207.13,343.66 208.69,343.22 210.91,342.60 212.36,342.20 214.58,341.57 216.03,341.17 218.25,340.36 219.81,339.94 222.03,339.33 223.48,338.78 225.70,338.35 227.15,337.90 229.48,337.23 230.93,336.83 233.15,336.20 234.60,335.69 236.82,334.82 238.38,334.42 240.60,333.84 242.05,333.47 244.27,332.89 245.72,332.42 247.94,331.81 249.50,331.39 251.72,330.78 253.17,330.39 255.39,329.78 256.84,329.34 259.06,328.56 260.62,328.05 262.85,327.44 264.29,326.94 266.52,326.32 267.96,325.96 270.19,325.41 271.74,324.31 273.97,323.64 275.41,323.24 277.64,322.53 279.08,322.32 281.31,321.72 282.86,321.30 285.09,320.65 286.53,320.25 288.76,319.62 290.20,319.22 292.43,318.60 293.98,318.10 296.21,317.31 297.65,316.77 299.88,316.15 301.44,315.71 303.66,315.00 305.11,314.63 307.33,313.77 308.78,313.13 311.00,312.49 312.56,312.05 314.78,311.43 316.23,311.03 318.45,310.40 319.90,310.00 322.12,309.25 323.68,308.85 325.90,308.13 327.35,307.97 329.57,307.23 331.02,306.85 333.24,306.25 334.80,305.83 337.02,305.03 338.47,304.67 340.69,304.13 342.14,303.71 344.36,303.20 345.92,302.76 348.14,302.14 349.59,301.74 351.81,301.12 353.26,300.71 355.48,300.09 357.04,299.65 359.27,299.03 360.71,298.47 362.94,297.75 364.49,297.32 366.72,296.70 368.16,296.29 370.39,295.67 371.83,295.27 374.06,294.64 375.61,294.21 377.84,293.51 379.28,293.06 381.51,292.18 382.95,291.51 385.18,290.85 386.73,290.41 388.96,289.79 390.40,289.39 392.63,288.76 394.07,288.11 396.30,287.24 397.86,286.76 400.08,286.04 401.53,285.64 403.75,284.97 405.20,284.58 407.42,283.90 408.98,283.46 411.20,282.55 412.65,282.29 414.87,281.57 416.32,281.07 418.54,280.28 420.10,279.71 422.32,279.13 423.77,278.76 425.99,278.01 427.55,277.86 429.77,277.09 431.22,276.55 433.44,275.99 435.67,275.43 437.11,275.06 439.34,274.50 440.89,274.11 443.12,273.55 444.56,273.31 446.79,272.72 448.23,272.33 450.46,271.58 452.02,271.10 454.24,270.40 455.69,269.95 457.91,269.24 459.36,268.98 461.58,268.36 463.14,267.80 465.36,267.20 466.81,266.72 469.03,265.85 470.48,265.72 472.70,265.06 474.26,264.63 476.48,264.01 477.93,263.60 480.15,262.98 481.60,262.58 483.82,261.80 485.38,261.35 487.60,260.73 489.05,260.33 491.27,259.43 492.83,259.00 495.05,258.38 496.50,257.97 498.72,257.35 500.17,256.95 502.39,256.19 503.95,255.69 506.18,255.06 507.62,254.66 509.85,254.04 511.29,253.63 513.52,253.01 515.07,252.58 517.30,251.96 518.74,251.49 520.97,250.71 522.41,250.21 524.64,249.59 526.19,249.16 528.42,248.53 529.86,248.13 532.09,247.51 533.53,247.10 535.76,246.48 537.31,246.05 539.54,245.43 540.98,245.02 543.21,244.40 544.65,244.00 546.88,243.30 548.44,242.89 550.66,242.31 552.11,241.93 554.33,241.35 555.89,240.81 558.11,240.42 559.56,240.03 561.78,239.43 563.23,239.04 565.45,238.44 567.01,237.98 569.23,237.36 570.68,236.96 572.90,236.12 574.35,235.61 576.57,235.22 578.13,234.79 580.35,234.17 581.80,233.76 584.02,233.14 585.47,232.51 587.69,231.70 589.25,231.30 591.47,230.84 592.92,230.03 595.14,229.32 596.59,228.93 598.81,228.25 600.37,227.74 602.60,227.15 604.04,226.77 606.27,225.82 607.71,225.24 609.94,224.81 611.49,224.31 613.72,223.76 615.16,223.24 617.39,222.65 618.83,222.26 621.17,221.73 622.61,221.33 624.84,220.70 626.28,220.30 628.51,219.68 630.06,219.24 632.29,218.37 633.73,217.94 635.96,217.32 637.40,216.92 639.63,216.19 641.19,215.72 643.41,215.01 644.86,214.52 647.08,213.65 648.53,213.24 650.75,212.33 652.31,211.90 654.53,211.27 655.98,210.87 658.20,210.16 659.65,209.78 661.87,209.20 663.43,208.67 665.65,208.05 667.10,207.64 669.32,207.02 670.77,206.56 672.99,205.55 674.55,205.15 676.77,204.58 678.22,204.21 680.44,203.65 681.89,203.20 684.11,202.49 685.67,202.06 687.89,201.43 689.34,201.03 691.56,200.28 693.12,199.73 695.35,199.11 696.79,198.70 699.02,198.08 700.46,197.68 702.69,196.76 704.24,196.33 706.47,195.71 707.91,195.30 710.14,194.68 711.58,194.28 713.81,193.65 715.36,193.22 717.59,192.60 719.03,192.08 721.26,191.35 722.70,190.95 724.93,190.33 726.48,189.89 728.71,189.27 730.15,188.86 732.38,188.24 733.82,187.84 736.05,187.22 737.61,186.78 739.83,186.16 741.28,185.76 743.50,185.13 744.95,184.73 747.17,184.11 748.73,183.67 750.95,183.05 752.40,182.65 754.62,181.95 756.18,181.47 758.40,180.79 759.85,180.33 762.07,179.71 763.52,179.31 765.74,178.69 767.30,178.25 769.52,177.63 770.97,177.22 773.19,176.60 774.64,176.20 776.86,175.58 778.42,175.14 780.64,174.37 782.09,174.00 784.31,173.30 785.76,172.91 787.98,172.30 789.54,171.84 791.77,171.22 793.21,170.82 795.44,170.19 796.88,169.79 799.11,169.07 800.66,168.66 802.89,167.95 804.33,167.57 806.56,166.73 808.78,166.14 810.23,165.76 812.45,165.16 814.01,164.78 816.23,163.97 817.68,163.58 819.90,162.98 821.46,162.57 823.68,161.68 825.13,161.29 827.35,160.59 828.80,160.18 831.02,159.56 832.58,159.13 834.80,158.50 836.25,158.10 838.47,157.28 839.92,156.88 842.14,156.26 843.70,155.82 845.93,155.20 847.37,154.80 849.60,153.99 851.04,153.44 853.27,152.77 854.82,152.61 857.05,151.99 858.49,151.59 860.72,150.93 862.16,150.54 864.39,149.79 865.94,149.23 868.17,148.21 869.61,147.81 871.84,147.19 873.28,146.60 875.51,146.04 877.06,145.66 879.29,145.11 880.73,144.66 882.96,144.32 884.52,143.69 886.74,143.01 888.19,142.62 890.41,141.98 891.86,141.57 894.08,140.78 895.64,140.38 897.86,139.79 899.31,139.30 901.53,138.53 902.98,138.11 905.20,137.50 906.76,136.80 908.98,136.18 910.43,135.77 912.65,135.15 914.10,134.75 916.32,133.98 917.88,133.59 920.10,133.03 921.55,132.59 923.77,131.81 925.22,131.42 927.44,130.76 929.00,130.22 931.22,129.60 932.67,129.10 934.89,128.36 936.34,127.95 938.56,127.33 940.12,126.89 942.35,126.27 943.79,125.87 946.02,125.11 947.57,124.43 949.80,123.62 951.24,123.21 953.47,122.59 954.91,122.19 957.14,121.25 958.69,120.77 960.92,120.35 962.36,119.91 964.59,119.23 966.03,118.84 968.26,118.16 969.81,117.72 972.04,117.10 973.48,116.70 975.71,116.07 977.15,115.56 979.38,114.98 980.94,114.58 983.16,113.87 984.61,113.27 986.83,112.60 988.28,112.32 990.50,111.65 992.06,111.23 994.28,110.56 995.73,110.15 997.95,109.53 999.40,109.13 1001.62,108.50 1003.18,108.07 1005.40,107.21 1006.85,106.81 1009.07,106.07 1010.52,105.89 1012.85,105.24 1014.30,104.83 1016.52,104.21 1017.97,103.81 1020.19,103.19 1021.75,102.75 1023.97,102.13 1025.42,101.73 1027.64,101.10 1029.09,100.70 1031.31,100.08 1032.87,99.64 1035.10,98.71 1036.54,98.28 1038.77,97.32 1040.21,96.93 1042.44,96.06 1043.99,95.38 1046.22,95.06 1047.66,94.69 1049.89,93.99 1051.33,93.59 1053.56,92.95 1055.11,92.51 1057.34,91.68 1058.78,91.31 1061.01,90.52 1062.45,90.16 1064.68,89.61 1066.23,89.14 1068.46,88.60 1069.90,88.01 1072.13,87.38 1073.57,86.98 1075.80,86.01 1077.36,85.48 1079.58,84.87 1081.03,84.38 1083.25,83.65 1084.81,82.87 1087.03,82.49 1088.48,82.10 1090.70,81.37 1092.15,81.01 1094.37,80.02 1095.93,79.54 1098.15,78.80 1099.60,78.43 1101.82,77.76 1103.27,77.36 1105.49,76.72 1107.05,76.29 1109.27,75.67 1110.72,75.26 1112.94,74.64 1114.39,74.24 1116.61,73.51 1118.17,72.84 1120.39,72.16 1121.84,71.70 1124.06,71.11 1125.51,70.73 1127.73,70.03 1129.29,69.60 1131.52,68.98 1132.96,68.57 1135.19,67.95 1136.63,67.55 1138.86,66.84 1140.41,66.35 1142.64,65.73 1144.08,65.33 1146.31,64.71 1147.86,64.27 1150.09,63.65 1151.53,63.18 1153.76,62.59 1155.20,62.21 1157.43,61.30 1158.98,60.92 1161.21,60.33 1162.65,59.83 1164.88,59.21 1166.32,58.80 1168.55,58.11 1170.11,57.70 1172.33,57.12 1173.78,56.62 1176.00,56.00 1176.00,56.00 1173.78,56.62 1172.33,57.12 1170.11,57.70 1168.55,58.11 1166.32,58.80 1164.88,59.21 1162.65,59.83 1161.21,60.33 1158.98,60.92 1157.43,61.30 1155.20,62.21 1153.76,62.59 1151.53,63.18 1150.09,63.65 1147.86,64.27 1146.31,64.71 1144.08,65.33 1142.64,65.73 1140.41,66.35 1138.86,66.84 1136.63,67.55 1135.19,67.95 1132.96,68.57 1131.52,68.98 1129.29,69.60 1127.73,70.03 1125.51,70.73 1124.06,71.11 1121.84,71.70 1120.39,72.16 1118.17,72.84 1116.61,73.51 1114.39,74.24 1112.94,74.64 1110.72,75.26 1109.27,75.67 1107.05,76.29 1105.49,76.72 1103.27,77.36 1101.82,77.76 1099.60,78.43 1098.15,78.80 1095.93,79.54 1094.37,80.02 1092.15,81.01 1090.70,81.37 1088.48,82.10 1087.03,82.49 1084.81,82.87 1083.25,83.65 1081.03,84.38 1079.58,84.87 1077.36,85.48 1075.80,86.01 1073.57,86.98 1072.13,87.38 1069.90,88.01 1068.46,88.60 1066.23,89.14 1064.68,89.61 1062.45,90.16 1061.01,90.52 1058.78,91.31 1057.34,91.68 1055.11,92.51 1053.56,92.95 1051.33,93.59 1049.89,93.99 1047.66,94.69 1046.22,95.06 1043.99,95.38 1042.44,96.06 1040.21,96.93 1038.77,97.32 1036.54,98.28 1035.10,98.71 1032.87,99.64 1031.31,100.08 1029.09,100.70 1027.64,101.10 1025.42,101.73 1023.97,102.13 1021.75,102.75 1020.19,103.19 1017.97,103.81 1016.52,104.21 1014.30,104.83 1012.85,105.24 1010.52,105.89 1009.07,106.07 1006.85,106.81 1005.40,107.21 1003.18,108.07 1001.62,108.50 999.40,109.13 997.95,109.53 995.73,110.15 994.28,110.56 992.06,111.23 990.50,111.65 988.28,112.32 986.83,112.60 984.61,113.27 983.16,113.87 980.94,114.58 979.38,114.98 977.15,115.56 975.71,116.07 973.48,116.70 972.04,117.10 969.81,117.72 968.26,118.16 966.03,118.84 964.59,119.23 962.36,119.91 960.92,120.35 958.69,120.77 957.14,121.25 954.91,122.19 953.47,122.59 951.24,123.21 949.80,123.62 947.57,124.43 946.02,125.11 943.79,125.87 942.35,126.27 940.12,126.89 938.56,127.33 936.34,127.95 934.89,128.36 932.67,129.10 931.22,129.60 929.00,130.22 927.44,130.76 925.22,131.42 923.77,131.81 921.55,132.59 920.10,133.03 917.88,133.59 916.32,133.98 914.10,134.75 912.65,135.15 910.43,135.77 908.98,136.18 906.76,136.80 905.20,137.50 902.98,138.11 901.53,138.53 899.31,139.30 897.86,139.79 895.64,140.38 894.08,140.78 891.86,141.57 890.41,141.98 888.19,142.62 886.74,143.01 884.52,143.69 882.96,144.32 880.73,144.66 879.29,145.11 877.06,145.66 875.51,146.04 873.28,146.60 871.84,147.19 869.61,147.81 868.17,148.21 865.94,149.23 864.39,149.79 862.16,150.54 860.72,150.93 858.49,151.59 857.05,151.99 854.82,152.61 853.27,152.77 851.04,153.44 849.60,153.99 847.37,154.80 845.93,155.20 843.70,155.82 842.14,156.26 839.92,156.88 838.47,157.28 836.25,158.10 834.80,158.50 832.58,159.13 831.02,159.56 828.80,160.18 827.35,160.59 825.13,161.29 823.68,161.68 821.46,162.57 819.90,162.98 817.68,163.58 816.23,163.97 814.01,164.78 812.45,165.16 810.23,165.76 808.78,166.14 806.56,166.73 804.33,167.57 802.89,167.95 800.66,168.66 799.11,169.07 796.88,169.79 795.44,170.19 793.21,170.82 791.77,171.22 789.54,171.84 787.98,172.30 785.76,172.91 784.31,173.30 782.09,174.00 780.64,174.37 778.42,175.14 776.86,175.58 774.64,176.20 773.19,176.60 770.97,177.22 769.52,177.63 767.30,178.25 765.74,178.69 763.52,179.31 762.07,179.71 759.85,180.33 758.40,180.79 756.18,181.47 754.62,181.95 752.40,182.65 750.95,183.05 748.73,183.67 747.17,184.11 744.95,184.73 743.50,185.13 741.28,185.76 739.83,186.16 737.61,186.78 736.05,187.22 733.82,187.84 732.38,188.24 730.15,188.86 728.71,189.27 726.48,189.89 724.93,190.33 722.70,190.95 721.26,191.35 719.03,192.08 717.59,192.60 715.36,193.22 713.81,193.65 711.58,194.28 710.14,194.68 707.91,195.30 706.47,195.71 704.24,196.33 702.69,196.76 700.46,197.68 699.02,198.08 696.79,198.70 695.35,199.11 693.12,199.73 691.56,200.28 689.34,201.03 687.89,201.43 685.67,202.06 684.11,202.49 681.89,203.20 680.44,203.65 678.22,204.21 676.77,204.58 674.55,205.15 672.99,205.55 670.77,206.56 669.32,207.02 667.10,207.64 665.65,208.05 663.43,208.67 661.87,209.20 659.65,209.78 658.20,210.16 655.98,210.87 654.53,211.27 652.31,211.90 650.75,212.33 648.53,213.24 647.08,213.65 644.86,214.52 643.41,215.01 641.19,215.72 639.63,216.19 637.40,216.92 635.96,217.32 633.73,217.94 632.29,218.37 630.06,219.24 628.51,219.68 626.28,220.30 624.84,220.70 622.61,221.33 621.17,221.73 618.83,222.26 617.39,222.65 615.16,223.24 613.72,223.76 611.49,224.31 609.94,224.81 607.71,225.24 606.27,225.82 604.04,226.77 602.60,227.15 600.37,227.74 598.81,228.25 596.59,228.93 595.14,229.32 592.92,230.03 591.47,230.84 589.25,231.30 587.69,231.70 585.47,232.51 584.02,233.14 581.80,233.76 580.35,234.17 578.13,234.79 576.57,235.22 574.35,235.61 572.90,236.12 570.68,236.96 569.23,237.36 567.01,237.98 565.45,238.44 563.23,239.04 561.78,239.43 559.56,240.03 558.11,240.42 555.89,240.81 554.33,241.35 552.11,241.93 550.66,242.31 548.44,242.89 546.88,243.30 544.65,244.00 543.21,244.40 540.98,245.02 539.54,245.43 537.31,246.05 535.76,246.48 533.53,247.10 532.09,247.51 529.86,248.13 528.42,248.53 526.19,249.16 524.64,249.59 522.41,250.21 520.97,250.71 518.74,251.49 517.30,251.96 515.07,252.58 513.52,253.01 511.29,253.63 509.85,254.04 507.62,254.66 506.18,255.06 503.95,255.69 502.39,256.19 500.17,256.95 498.72,257.35 496.50,257.97 495.05,258.38 492.83,259.00 491.27,259.43 489.05,260.33 487.60,260.73 485.38,261.35 483.82,261.80 481.60,262.58 480.15,262.98 477.93,263.60 476.48,264.01 474.26,264.63 472.70,265.06 470.48,265.72 469.03,265.85 466.81,266.72 465.36,267.20 463.14,267.80 461.58,268.36 459.36,268.98 457.91,269.24 455.69,269.95 454.24,270.40 452.02,271.10 450.46,271.58 448.23,272.33 446.79,272.72 444.56,273.31 443.12,273.55 440.89,274.11 439.34,274.50 437.11,275.06 435.67,275.43 433.44,275.99 431.22,276.55 429.77,277.09 427.55,277.86 425.99,278.01 423.77,278.76 422.32,279.13 420.10,279.71 418.54,280.28 416.32,281.07 414.87,281.57 412.65,282.29 411.20,282.55 408.98,283.46 407.42,283.90 405.20,284.58 403.75,284.97 401.53,285.64 400.08,286.04 397.86,286.76 396.30,287.24 394.07,288.11 392.63,288.76 390.40,289.39 388.96,289.79 386.73,290.41 385.18,290.85 382.95,291.51 381.51,292.18 379.28,293.06 377.84,293.51 375.61,294.21 374.06,294.64 371.83,295.27 370.39,295.67 368.16,296.29 366.72,296.70 364.49,297.32 362.94,297.75 360.71,298.47 359.27,299.03 357.04,299.65 355.48,300.09 353.26,300.71 351.81,301.12 349.59,301.74 348.14,302.14 345.92,302.76 344.36,303.20 342.14,303.71 340.69,304.13 338.47,304.67 337.02,305.03 334.80,305.83 333.24,306.25 331.02,306.85 329.57,307.23 327.35,307.97 325.90,308.13 323.68,308.85 322.12,309.25 319.90,310.00 318.45,310.40 316.23,311.03 314.78,311.43 312.56,312.05 311.00,312.49 308.78,313.13 307.33,313.77 305.11,314.63 303.66,315.00 301.44,315.71 299.88,316.15 297.65,316.77 296.21,317.31 293.98,318.10 292.43,318.60 290.20,319.22 288.76,319.62 286.53,320.25 285.09,320.65 282.86,321.30 281.31,321.72 279.08,322.32 277.64,322.53 275.41,323.24 273.97,323.64 271.74,324.31 270.19,325.41 267.96,325.96 266.52,326.32 264.29,326.94 262.85,327.44 260.62,328.05 259.06,328.56 256.84,329.34 255.39,329.78 253.17,330.39 251.72,330.78 249.50,331.39 247.94,331.81 245.72,332.42 244.27,332.89 242.05,333.47 240.60,333.84 238.38,334.42 236.82,334.82 234.60,335.69 233.15,336.20 230.93,336.83 229.48,337.23 227.15,337.90 225.70,338.35 223.48,338.78 222.03,339.33 219.81,339.94 218.25,340.36 216.03,341.17 214.58,341.57 212.36,342.20 210.91,342.60 208.69,343.22 207.13,343.66 204.90,344.28 203.46,344.68 201.23,345.31 199.79,345.71 197.56,346.43 196.01,346.95 193.78,347.57 192.34,348.07 190.11,348.65 188.67,349.02 186.44,349.59 184.89,350.19 182.66,350.91 181.22,351.31 178.99,351.94 177.55,352.38 175.32,353.04 173.77,353.55 171.54,354.28 170.10,354.68 167.87,355.36 166.43,355.53 164.20,356.22 162.64,356.63 160.42,357.36 158.97,357.72 156.75,358.26 155.19,358.64 152.97,359.38 151.52,360.00 149.30,360.48 147.85,360.84 145.63,361.40 144.07,361.80 141.85,362.36 140.40,362.72 138.18,363.28 136.73,363.85 134.51,364.47 132.95,364.91 130.73,365.53 129.28,365.93 127.06,366.55 125.61,366.96 123.39,367.58 121.83,368.11 119.61,368.68 118.16,369.17 115.94,369.78 114.49,370.17 112.27,371.13 110.71,371.56 108.48,372.18 107.04,372.59 104.81,373.27 103.37,373.52 101.14,374.27 99.59,374.68 97.36,375.15 95.92,375.77 93.69,376.39 92.14,376.83 89.91,377.45 88.47,377.85 86.24,378.41 84.80,378.88 82.57,379.47 81.02,380.00 78.79,380.66 77.35,381.05 75.12,381.65 73.68,382.15 71.45,382.70 69.89,383.09 67.67,383.64 66.22,384.00 64.00,382.54" fill="#3b82f6" opacity="0.28"/><polyline points="64.00,382.54 66.22,384.00 67.67,383.64 69.89,383.09 71.45,382.70 73.68,382.15 75.12,381.65 77.35,381.05 78.79,380.66 81.02,380.00 82.57,379.47 84.80,378.88 86.24,378.41 88.47,377.85 89.91,377.45 92.14,376.83 93.69,376.39 95.92,375.77 97.36,375.15 99.59,374.68 101.14,374.27 103.37,373.52 104.81,373.27 107.04,372.59 108.48,372.18 110.71,371.56 112.27,371.13 114.49,370.17 115.94,369.78 118.16,369.17 119.61,368.68 121.83,368.11 123.39,367.58 125.61,366.96 127.06,366.55 129.28,365.93 130.73,365.53 132.95,364.91 134.51,364.47 136.73,363.85 138.18,363.28 140.40,362.72 141.85,362.36 144.07,361.80 145.63,361.40 147.85,360.84 149.30,360.48 151.52,360.00 152.97,359.38 155.19,358.64 156.75,358.26 158.97,357.72 160.42,357.36 162.64,356.63 164.20,356.22 166.43,355.53 167.87,355.36 170.10,354.68 171.54,354.28 173.77,353.55 175.32,353.04 177.55,352.38 178.99,351.94 181.22,351.31 182.66,350.91 184.89,350.19 186.44,349.59 188.67,349.02 190.11,348.65 192.34,348.07 193.78,347.57 196.01,346.95 197.56,346.43 199.79,345.71 201.23,345.31 203.46,344.68 204.90,344.28 207.13,343.66 208.69,343.22 210.91,342.60 212.36,342.20 214.58,341.57 216.03,341.17 218.25,340.36 219.81,339.94 222.03,339.33 223.48,338.78 225.70,338.35 227.15,337.90 229.48,337.23 230.93,336.83 233.15,336.20 234.60,335.69 236.82,334.82 238.38,334.42 240.60,333.84 242.05,333.47 244.27,332.89 245.72,332.42 247.94,331.81 249.50,331.39 251.72,330.78 253.17,330.39 255.39,329.78 256.84,329.34 259.06,328.56 260.62,328.05 262.85,327.44 264.29,326.94 266.52,326.32 267.96,325.96 270.19,325.41 271.74,324.31 273.97,323.64 275.41,323.24 277.64,322.53 279.08,322.32 281.31,321.72 282.86,321.30 285.09,320.65 286.53,320.25 288.76,319.62 290.20,319.22 292.43,318.60 293.98,318.10 296.21,317.31 297.65,316.77 299.88,316.15 301.44,315.71 303.66,315.00 305.11,314.63 307.33,313.77 308.78,313.13 311.00,312.49 312.56,312.05 314.78,311.43 316.23,311.03 318.45,310.40 319.90,310.00 322.12,309.25 323.68,308.85 325.90,308.13 327.35,307.97 329.57,307.23 331.02,306.85 333.24,306.25 334.80,305.83 337.02,305.03 338.47,304.67 340.69,304.13 342.14,303.71 344.36,303.20 345.92,302.76 348.14,302.14 349.59,301.74 351.81,301.12 353.26,300.71 355.48,300.09 357.04,299.65 359.27,299.03 360.71,298.47 362.94,297.75 364.49,297.32 366.72,296.70 368.16,296.29 370.39,295.67 371.83,295.27 374.06,294.64 375.61,294.21 377.84,293.51 379.28,293.06 381.51,292.18 382.95,291.51 385.18,290.85 386.73,290.41 388.96,289.79 390.40,289.39 392.63,288.76 394.07,288.11 396.30,287.24 397.86,286.76 400.08,286.04 401.53,285.64 403.75,284.97 405.20,284.58 407.42,283.90 408.98,283.46 411.20,282.55 412.65,282.29 414.87,281.57 416.32,281.07 418.54,280.28 420.10,279.71 422.32,279.13 423.77,278.76 425.99,278.01 427.55,277.86 429.77,277.09 431.22,276.55 433.44,275.99 435.67,275.43 437.11,275.06 439.34,274.50 440.89,274.11 443.12,273.55 444.56,273.31 446.79,272.72 448.23,272.33 450.46,271.58 452.02,271.10 454.24,270.40 455.69,269.95 457.91,269.24 459.36,268.98 461.58,268.36 463.14,267.80 465.36,267.20 466.81,266.72 469.03,265.85 470.48,265.72 472.70,265.06 474.26,264.63 476.48,264.01 477.93,263.60 480.15,262.98 481.60,262.58 483.82,261.80 485.38,261.35 487.60,260.73 489.05,260.33 491.27,259.43 492.83,259.00 495.05,258.38 496.50,257.97 498.72,257.35 500.17,256.95 502.39,256.19 503.95,255.69 506.18,255.06 507.62,254.66 509.85,254.04 511.29,253.63 513.52,253.01 515.07,252.58 517.30,251.96 518.74,251.49 520.97,250.71 522.41,250.21 524.64,249.59 526.19,249.16 528.42,248.53 529.86,248.13 532.09,247.51 533.53,247.10 535.76,246.48 537.31,246.05 539.54,245.43 540.98,245.02 543.21,244.40 544.65,244.00 546.88,243.30 548.44,242.89 550.66,242.31 552.11,241.93 554.33,241.35 555.89,240.81 558.11,240.42 559.56,240.03 561.78,239.43 563.23,239.04 565.45,238.44 567.01,237.98 569.23,237.36 570.68,236.96 572.90,236.12 574.35,235.61 576.57,235.22 578.13,234.79 580.35,234.17 581.80,233.76 584.02,233.14 585.47,232.51 587.69,231.70 589.25,231.30 591.47,230.84 592.92,230.03 595.14,229.32 596.59,228.93 598.81,228.25 600.37,227.74 602.60,227.15 604.04,226.77 606.27,225.82 607.71,225.24 609.94,224.81 611.49,224.31 613.72,223.76 615.16,223.24 617.39,222.65 618.83,222.26 621.17,221.73 622.61,221.33 624.84,220.70 626.28,220.30 628.51,219.68 630.06,219.24 632.29,218.37 633.73,217.94 635.96,217.32 637.40,216.92 639.63,216.19 641.19,215.72 643.41,215.01 644.86,214.52 647.08,213.65 648.53,213.24 650.75,212.33 652.31,211.90 654.53,211.27 655.98,210.87 658.20,210.16 659.65,209.78 661.87,209.20 663.43,208.67 665.65,208.05 667.10,207.64 669.32,207.02 670.77,206.56 672.99,205.55 674.55,205.15 676.77,204.58 678.22,204.21 680.44,203.65 681.89,203.20 684.11,202.49 685.67,202.06 687.89,201.43 689.34,201.03 691.56,200.28 693.12,199.73 695.35,199.11 696.79,198.70 699.02,198.08 700.46,197.68 702.69,196.76 704.24,196.33 706.47,195.71 707.91,195.30 710.14,194.68 711.58,194.28 713.81,193.65 715.36,193.22 717.59,192.60 719.03,192.08 721.26,191.35 722.70,190.95 724.93,190.33 726.48,189.89 728.71,189.27 730.15,188.86 732.38,188.24 733.82,187.84 736.05,187.22 737.61,186.78 739.83,186.16 741.28,185.76 743.50,185.13 744.95,184.73 747.17,184.11 748.73,183.67 750.95,183.05 752.40,182.65 754.62,181.95 756.18,181.47 758.40,180.79 759.85,180.33 762.07,179.71 763.52,179.31 765.74,178.69 767.30,178.25 769.52,177.63 770.97,177.22 773.19,176.60 774.64,176.20 776.86,175.58 778.42,175.14 780.64,174.37 782.09,174.00 784.31,173.30 785.76,172.91 787.98,172.30 789.54,171.84 791.77,171.22 793.21,170.82 795.44,170.19 796.88,169.79 799.11,169.07 800.66,168.66 802.89,167.95 804.33,167.57 806.56,166.73 808.78,166.14 810.23,165.76 812.45,165.16 814.01,164.78 816.23,163.97 817.68,163.58 819.90,162.98 821.46,162.57 823.68,161.68 825.13,161.29 827.35,160.59 828.80,160.18 831.02,159.56 832.58,159.13 834.80,158.50 836.25,158.10 838.47,157.28 839.92,156.88 842.14,156.26 843.70,155.82 845.93,155.20 847.37,154.80 849.60,153.99 851.04,153.44 853.27,152.77 854.82,152.61 857.05,151.99 858.49,151.59 860.72,150.93 862.16,150.54 864.39,149.79 865.94,149.23 868.17,148.21 869.61,147.81 871.84,147.19 873.28,146.60 875.51,146.04 877.06,145.66 879.29,145.11 880.73,144.66 882.96,144.32 884.52,143.69 886.74,143.01 888.19,142.62 890.41,141.98 891.86,141.57 894.08,140.78 895.64,140.38 897.86,139.79 899.31,139.30 901.53,138.53 902.98,138.11 905.20,137.50 906.76,136.80 908.98,136.18 910.43,135.77 912.65,135.15 914.10,134.75 916.32,133.98 917.88,133.59 920.10,133.03 921.55,132.59 923.77,131.81 925.22,131.42 927.44,130.76 929.00,130.22 931.22,129.60 932.67,129.10 934.89,128.36 936.34,127.95 938.56,127.33 940.12,126.89 942.35,126.27 943.79,125.87 946.02,125.11 947.57,124.43 949.80,123.62 951.24,123.21 953.47,122.59 954.91,122.19 957.14,121.25 958.69,120.77 960.92,120.35 962.36,119.91 964.59,119.23 966.03,118.84 968.26,118.16 969.81,117.72 972.04,117.10 973.48,116.70 975.71,116.07 977.15,115.56 979.38,114.98 980.94,114.58 983.16,113.87 984.61,113.27 986.83,112.60 988.28,112.32 990.50,111.65 992.06,111.23 994.28,110.56 995.73,110.15 997.95,109.53 999.40,109.13 1001.62,108.50 1003.18,108.07 1005.40,107.21 1006.85,106.81 1009.07,106.07 1010.52,105.89 1012.85,105.24 1014.30,104.83 1016.52,104.21 1017.97,103.81 1020.19,103.19 1021.75,102.75 1023.97,102.13 1025.42,101.73 1027.64,101.10 1029.09,100.70 1031.31,100.08 1032.87,99.64 1035.10,98.71 1036.54,98.28 1038.77,97.32 1040.21,96.93 1042.44,96.06 1043.99,95.38 1046.22,95.06 1047.66,94.69 1049.89,93.99 1051.33,93.59 1053.56,92.95 1055.11,92.51 1057.34,91.68 1058.78,91.31 1061.01,90.52 1062.45,90.16 1064.68,89.61 1066.23,89.14 1068.46,88.60 1069.90,88.01 1072.13,87.38 1073.57,86.98 1075.80,86.01 1077.36,85.48 1079.58,84.87 1081.03,84.38 1083.25,83.65 1084.81,82.87 1087.03,82.49 1088.48,82.10 1090.70,81.37 1092.15,81.01 1094.37,80.02 1095.93,79.54 1098.15,78.80 1099.60,78.43 1101.82,77.76 1103.27,77.36 1105.49,76.72 1107.05,76.29 1109.27,75.67 1110.72,75.26 1112.94,74.64 1114.39,74.24 1116.61,73.51 1118.17,72.84 1120.39,72.16 1121.84,71.70 1124.06,71.11 1125.51,70.73 1127.73,70.03 1129.29,69.60 1131.52,68.98 1132.96,68.57 1135.19,67.95 1136.63,67.55 1138.86,66.84 1140.41,66.35 1142.64,65.73 1144.08,65.33 1146.31,64.71 1147.86,64.27 1150.09,63.65 1151.53,63.18 1153.76,62.59 1155.20,62.21 1157.43,61.30 1158.98,60.92 1161.21,60.33 1162.65,59.83 1164.88,59.21 1166.32,58.80 1168.55,58.11 1170.11,57.70 1172.33,57.12 1173.78,56.62 1176.00,56.00" fill="none" stroke="#f8fafc" stroke-width="2"/><polyline points="64.00,382.54 66.22,384.00 67.67,383.64 69.89,383.09 71.45,382.70 73.68,382.15 75.12,381.65 77.35,381.05 78.79,380.66 81.02,380.00 82.57,379.47 84.80,378.88 86.24,378.41 88.47,377.85 89.91,377.45 92.14,376.83 93.69,376.39 95.92,375.77 97.36,375.15 99.59,374.68 101.14,374.27 103.37,373.52 104.81,373.27 107.04,372.59 108.48,372.18 110.71,371.56 112.27,371.13 114.49,370.17 115.94,369.78 118.16,369.17 119.61,368.68 121.83,368.11 123.39,367.58 125.61,366.96 127.06,366.55 129.28,365.93 130.73,365.53 132.95,364.91 134.51,364.47 136.73,363.85 138.18,363.28 140.40,362.72 141.85,362.36 144.07,361.80 145.63,361.40 147.85,360.84 149.30,360.48 151.52,360.00 152.97,359.38 155.19,358.64 156.75,358.26 158.97,357.72 160.42,357.36 162.64,356.63 164.20,356.22 166.43,355.53 167.87,355.36 170.10,354.68 171.54,354.28 173.77,353.55 175.32,353.04 177.55,352.38 178.99,351.94 181.22,351.31 182.66,350.91 184.89,350.19 186.44,349.59 188.67,349.02 190.11,348.65 192.34,348.07 193.78,347.57 196.01,346.95 197.56,346.43 199.79,345.71 201.23,345.31 203.46,344.68 204.90,344.28 207.13,343.66 208.69,343.22 210.91,342.60 212.36,342.20 214.58,341.57 216.03,341.17 218.25,340.36 219.81,339.94 222.03,339.33 223.48,338.78 225.70,338.35 227.15,337.90 229.48,337.23 230.93,336.83 233.15,336.20 234.60,335.69 236.82,334.82 238.38,334.42 240.60,333.84 242.05,333.47 244.27,332.89 245.72,332.42 247.94,331.81 249.50,331.39 251.72,330.78 253.17,330.39 255.39,329.78 256.84,329.34 259.06,328.56 260.62,328.05 262.85,327.44 264.29,326.94 266.52,326.32 267.96,325.96 270.19,325.41 271.74,324.31 273.97,323.64 275.41,323.24 277.64,322.53 279.08,322.32 281.31,321.72 282.86,321.30 285.09,320.65 286.53,320.25 288.76,319.62 290.20,319.22 292.43,318.60 293.98,318.10 296.21,317.31 297.65,316.77 299.88,316.15 301.44,315.71 303.66,315.00 305.11,314.63 307.33,313.77 308.78,313.13 311.00,312.49 312.56,312.05 314.78,311.43 316.23,311.03 318.45,310.40 319.90,310.00 322.12,309.25 323.68,308.85 325.90,308.13 327.35,307.97 329.57,307.23 331.02,306.85 333.24,306.25 334.80,305.83 337.02,305.03 338.47,304.67 340.69,304.13 342.14,303.71 344.36,303.20 345.92,302.76 348.14,302.14 349.59,301.74 351.81,301.12 353.26,300.71 355.48,300.09 357.04,299.65 359.27,299.03 360.71,298.47 362.94,297.75 364.49,297.32 366.72,296.70 368.16,296.29 370.39,295.67 371.83,295.27 374.06,294.64 375.61,294.21 377.84,293.51 379.28,293.06 381.51,292.18 382.95,291.51 385.18,290.85 386.73,290.41 388.96,289.79 390.40,289.39 392.63,288.76 394.07,288.11 396.30,287.24 397.86,286.76 400.08,286.04 401.53,285.64 403.75,284.97 405.20,284.58 407.42,283.90 408.98,283.46 411.20,282.55 412.65,282.29 414.87,281.57 416.32,281.07 418.54,280.28 420.10,279.71 422.32,279.13 423.77,278.76 425.99,278.01 427.55,277.86 429.77,277.09 431.22,276.55 433.44,275.99 435.67,275.43 437.11,275.06 439.34,274.50 440.89,274.11 443.12,273.55 444.56,273.31 446.79,272.72 448.23,272.33 450.46,271.58 452.02,271.10 454.24,270.40 455.69,269.95 457.91,269.24 459.36,268.98 461.58,268.36 463.14,267.80 465.36,267.20 466.81,266.72 469.03,265.85 470.48,265.72 472.70,265.06 474.26,264.63 476.48,264.01 477.93,263.60 480.15,262.98 481.60,262.58 483.82,261.80 485.38,261.35 487.60,260.73 489.05,260.33 491.27,259.43 492.83,259.00 495.05,258.38 496.50,257.97 498.72,257.35 500.17,256.95 502.39,256.19 503.95,255.69 506.18,255.06 507.62,254.66 509.85,254.04 511.29,253.63 513.52,253.01 515.07,252.58 517.30,251.96 518.74,251.49 520.97,250.71 522.41,250.21 524.64,249.59 526.19,249.16 528.42,248.53 529.86,248.13 532.09,247.51 533.53,247.10 535.76,246.48 537.31,246.05 539.54,245.43 540.98,245.02 543.21,244.40 544.65,244.00 546.88,243.30 548.44,242.89 550.66,242.31 552.11,241.93 554.33,241.35 555.89,240.81 558.11,240.42 559.56,240.03 561.78,239.43 563.23,239.04 565.45,238.44 567.01,237.98 569.23,237.36 570.68,236.96 572.90,236.12 574.35,235.61 576.57,235.22 578.13,234.79 580.35,234.17 581.80,233.76 584.02,233.14 585.47,232.51 587.69,231.70 589.25,231.30 591.47,230.84 592.92,230.03 595.14,229.32 596.59,228.93 598.81,228.25 600.37,227.74 602.60,227.15 604.04,226.77 606.27,225.82 607.71,225.24 609.94,224.81 611.49,224.31 613.72,223.76 615.16,223.24 617.39,222.65 618.83,222.26 621.17,221.73 622.61,221.33 624.84,220.70 626.28,220.30 628.51,219.68 630.06,219.24 632.29,218.37 633.73,217.94 635.96,217.32 637.40,216.92 639.63,216.19 641.19,215.72 643.41,215.01 644.86,214.52 647.08,213.65 648.53,213.24 650.75,212.33 652.31,211.90 654.53,211.27 655.98,210.87 658.20,210.16 659.65,209.78 661.87,209.20 663.43,208.67 665.65,208.05 667.10,207.64 669.32,207.02 670.77,206.56 672.99,205.55 674.55,205.15 676.77,204.58 678.22,204.21 680.44,203.65 681.89,203.20 684.11,202.49 685.67,202.06 687.89,201.43 689.34,201.03 691.56,200.28 693.12,199.73 695.35,199.11 696.79,198.70 699.02,198.08 700.46,197.68 702.69,196.76 704.24,196.33 706.47,195.71 707.91,195.30 710.14,194.68 711.58,194.28 713.81,193.65 715.36,193.22 717.59,192.60 719.03,192.08 721.26,191.35 722.70,190.95 724.93,190.33 726.48,189.89 728.71,189.27 730.15,188.86 732.38,188.24 733.82,187.84 736.05,187.22 737.61,186.78 739.83,186.16 741.28,185.76 743.50,185.13 744.95,184.73 747.17,184.11 748.73,183.67 750.95,183.05 752.40,182.65 754.62,181.95 756.18,181.47 758.40,180.79 759.85,180.33 762.07,179.71 763.52,179.31 765.74,178.69 767.30,178.25 769.52,177.63 770.97,177.22 773.19,176.60 774.64,176.20 776.86,175.58 778.42,175.14 780.64,174.37 782.09,174.00 784.31,173.30 785.76,172.91 787.98,172.30 789.54,171.84 791.77,171.22 793.21,170.82 795.44,170.19 796.88,169.79 799.11,169.07 800.66,168.66 802.89,167.95 804.33,167.57 806.56,166.73 808.78,166.14 810.23,165.76 812.45,165.16 814.01,164.78 816.23,163.97 817.68,163.58 819.90,162.98 821.46,162.57 823.68,161.68 825.13,161.29 827.35,160.59 828.80,160.18 831.02,159.56 832.58,159.13 834.80,158.50 836.25,158.10 838.47,157.28 839.92,156.88 842.14,156.26 843.70,155.82 845.93,155.20 847.37,154.80 849.60,153.99 851.04,153.44 853.27,152.77 854.82,152.61 857.05,151.99 858.49,151.59 860.72,150.93 862.16,150.54 864.39,149.79 865.94,149.23 868.17,148.21 869.61,147.81 871.84,147.19 873.28,146.60 875.51,146.04 877.06,145.66 879.29,145.11 880.73,144.66 882.96,144.32 884.52,143.69 886.74,143.01 888.19,142.62 890.41,141.98 891.86,141.57 894.08,140.78 895.64,140.38 897.86,139.79 899.31,139.30 901.53,138.53 902.98,138.11 905.20,137.50 906.76,136.80 908.98,136.18 910.43,135.77 912.65,135.15 914.10,134.75 916.32,133.98 917.88,133.59 920.10,133.03 921.55,132.59 923.77,131.81 925.22,131.42 927.44,130.76 929.00,130.22 931.22,129.60 932.67,129.10 934.89,128.36 936.34,127.95 938.56,127.33 940.12,126.89 942.35,126.27 943.79,125.87 946.02,125.11 947.57,124.43 949.80,123.62 951.24,123.21 953.47,122.59 954.91,122.19 957.14,121.25 958.69,120.77 960.92,120.35 962.36,119.91 964.59,119.23 966.03,118.84 968.26,118.16 969.81,117.72 972.04,117.10 973.48,116.70 975.71,116.07 977.15,115.56 979.38,114.98 980.94,114.58 983.16,113.87 984.61,113.27 986.83,112.60 988.28,112.32 990.50,111.65 992.06,111.23 994.28,110.56 995.73,110.15 997.95,109.53 999.40,109.13 1001.62,108.50 1003.18,108.07 1005.40,107.21 1006.85,106.81 1009.07,106.07 1010.52,105.89 1012.85,105.24 1014.30,104.83 1016.52,104.21 1017.97,103.81 1020.19,103.19 1021.75,102.75 1023.97,102.13 1025.42,101.73 1027.64,101.10 1029.09,100.70 1031.31,100.08 1032.87,99.64 1035.10,98.71 1036.54,98.28 1038.77,97.32 1040.21,96.93 1042.44,96.06 1043.99,95.38 1046.22,95.06 1047.66,94.69 1049.89,93.99 1051.33,93.59 1053.56,92.95 1055.11,92.51 1057.34,91.68 1058.78,91.31 1061.01,90.52 1062.45,90.16 1064.68,89.61 1066.23,89.14 1068.46,88.60 1069.90,88.01 1072.13,87.38 1073.57,86.98 1075.80,86.01 1077.36,85.48 1079.58,84.87 1081.03,84.38 1083.25,83.65 1084.81,82.87 1087.03,82.49 1088.48,82.10 1090.70,81.37 1092.15,81.01 1094.37,80.02 1095.93,79.54 1098.15,78.80 1099.60,78.43 1101.82,77.76 1103.27,77.36 1105.49,76.72 1107.05,76.29 1109.27,75.67 1110.72,75.26 1112.94,74.64 1114.39,74.24 1116.61,73.51 1118.17,72.84 1120.39,72.16 1121.84,71.70 1124.06,71.11 1125.51,70.73 1127.73,70.03 1129.29,69.60 1131.52,68.98 1132.96,68.57 1135.19,67.95 1136.63,67.55 1138.86,66.84 1140.41,66.35 1142.64,65.73 1144.08,65.33 1146.31,64.71 1147.86,64.27 1150.09,63.65 1151.53,63.18 1153.76,62.59 1155.20,62.21 1157.43,61.30 1158.98,60.92 1161.21,60.33 1162.65,59.83 1164.88,59.21 1166.32,58.80 1168.55,58.11 1170.11,57.70 1172.33,57.12 1173.78,56.62 1176.00,56.00" fill="none" stroke="#f59e0b" stroke-width="2" stroke-dasharray="6 4"/><polyline points="64.00,382.54 66.22,384.00 67.67,383.64 69.89,383.09 71.45,382.70 73.68,382.15 75.12,381.65 77.35,381.05 78.79,380.66 81.02,380.00 82.57,379.47 84.80,378.88 86.24,378.41 88.47,377.85 89.91,377.45 92.14,376.83 93.69,376.39 95.92,375.77 97.36,375.15 99.59,374.68 101.14,374.27 103.37,373.52 104.81,373.27 107.04,372.59 108.48,372.18 110.71,371.56 112.27,371.13 114.49,370.17 115.94,369.78 118.16,369.17 119.61,368.68 121.83,368.11 123.39,367.58 125.61,366.96 127.06,366.55 129.28,365.93 130.73,365.53 132.95,364.91 134.51,364.47 136.73,363.85 138.18,363.28 140.40,362.72 141.85,362.36 144.07,361.80 145.63,361.40 147.85,360.84 149.30,360.48 151.52,360.00 152.97,359.38 155.19,358.64 156.75,358.26 158.97,357.72 160.42,357.36 162.64,356.63 164.20,356.22 166.43,355.53 167.87,355.36 170.10,354.68 171.54,354.28 173.77,353.55 175.32,353.04 177.55,352.38 178.99,351.94 181.22,351.31 182.66,350.91 184.89,350.19 186.44,349.59 188.67,349.02 190.11,348.65 192.34,348.07 193.78,347.57 196.01,346.95 197.56,346.43 199.79,345.71 201.23,345.31 203.46,344.68 204.90,344.28 207.13,343.66 208.69,343.22 210.91,342.60 212.36,342.20 214.58,341.57 216.03,341.17 218.25,340.36 219.81,339.94 222.03,339.33 223.48,338.78 225.70,338.35 227.15,337.90 229.48,337.23 230.93,336.83 233.15,336.20 234.60,335.69 236.82,334.82 238.38,334.42 240.60,333.84 242.05,333.47 244.27,332.89 245.72,332.42 247.94,331.81 249.50,331.39 251.72,330.78 253.17,330.39 255.39,329.78 256.84,329.34 259.06,328.56 260.62,328.05 262.85,327.44 264.29,326.94 266.52,326.32 267.96,325.96 270.19,325.41 271.74,324.31 273.97,323.64 275.41,323.24 277.64,322.53 279.08,322.32 281.31,321.72 282.86,321.30 285.09,320.65 286.53,320.25 288.76,319.62 290.20,319.22 292.43,318.60 293.98,318.10 296.21,317.31 297.65,316.77 299.88,316.15 301.44,315.71 303.66,315.00 305.11,314.63 307.33,313.77 308.78,313.13 311.00,312.49 312.56,312.05 314.78,311.43 316.23,311.03 318.45,310.40 319.90,310.00 322.12,309.25 323.68,308.85 325.90,308.13 327.35,307.97 329.57,307.23 331.02,306.85 333.24,306.25 334.80,305.83 337.02,305.03 338.47,304.67 340.69,304.13 342.14,303.71 344.36,303.20 345.92,302.76 348.14,302.14 349.59,301.74 351.81,301.12 353.26,300.71 355.48,300.09 357.04,299.65 359.27,299.03 360.71,298.47 362.94,297.75 364.49,297.32 366.72,296.70 368.16,296.29 370.39,295.67 371.83,295.27 374.06,294.64 375.61,294.21 377.84,293.51 379.28,293.06 381.51,292.18 382.95,291.51 385.18,290.85 386.73,290.41 388.96,289.79 390.40,289.39 392.63,288.76 394.07,288.11 396.30,287.24 397.86,286.76 400.08,286.04 401.53,285.64 403.75,284.97 405.20,284.58 407.42,283.90 408.98,283.46 411.20,282.55 412.65,282.29 414.87,281.57 416.32,281.07 418.54,280.28 420.10,279.71 422.32,279.13 423.77,278.76 425.99,278.01 427.55,277.86 429.77,277.09 431.22,276.55 433.44,275.99 435.67,275.43 437.11,275.06 439.34,274.50 440.89,274.11 443.12,273.55 444.56,273.31 446.79,272.72 448.23,272.33 450.46,271.58 452.02,271.10 454.24,270.40 455.69,269.95 457.91,269.24 459.36,268.98 461.58,268.36 463.14,267.80 465.36,267.20 466.81,266.72 469.03,265.85 470.48,265.72 472.70,265.06 474.26,264.63 476.48,264.01 477.93,263.60 480.15,262.98 481.60,262.58 483.82,261.80 485.38,261.35 487.60,260.73 489.05,260.33 491.27,259.43 492.83,259.00 495.05,258.38 496.50,257.97 498.72,257.35 500.17,256.95 502.39,256.19 503.95,255.69 506.18,255.06 507.62,254.66 509.85,254.04 511.29,253.63 513.52,253.01 515.07,252.58 517.30,251.96 518.74,251.49 520.97,250.71 522.41,250.21 524.64,249.59 526.19,249.16 528.42,248.53 529.86,248.13 532.09,247.51 533.53,247.10 535.76,246.48 537.31,246.05 539.54,245.43 540.98,245.02 543.21,244.40 544.65,244.00 546.88,243.30 548.44,242.89 550.66,242.31 552.11,241.93 554.33,241.35 555.89,240.81 558.11,240.42 559.56,240.03 561.78,239.43 563.23,239.04 565.45,238.44 567.01,237.98 569.23,237.36 570.68,236.96 572.90,236.12 574.35,235.61 576.57,235.22 578.13,234.79 580.35,234.17 581.80,233.76 584.02,233.14 585.47,232.51 587.69,231.70 589.25,231.30 591.47,230.84 592.92,230.03 595.14,229.32 596.59,228.93 598.81,228.25 600.37,227.74 602.60,227.15 604.04,226.77 606.27,225.82 607.71,225.24 609.94,224.81 611.49,224.31 613.72,223.76 615.16,223.24 617.39,222.65 618.83,222.26 621.17,221.73 622.61,221.33 624.84,220.70 626.28,220.30 628.51,219.68 630.06,219.24 632.29,218.37 633.73,217.94 635.96,217.32 637.40,216.92 639.63,216.19 641.19,215.72 643.41,215.01 644.86,214.52 647.08,213.65 648.53,213.24 650.75,212.33 652.31,211.90 654.53,211.27 655.98,210.87 658.20,210.16 659.65,209.78 661.87,209.20 663.43,208.67 665.65,208.05 667.10,207.64 669.32,207.02 670.77,206.56 672.99,205.55 674.55,205.15 676.77,204.58 678.22,204.21 680.44,203.65 681.89,203.20 684.11,202.49 685.67,202.06 687.89,201.43 689.34,201.03 691.56,200.28 693.12,199.73 695.35,199.11 696.79,198.70 699.02,198.08 700.46,197.68 702.69,196.76 704.24,196.33 706.47,195.71 707.91,195.30 710.14,194.68 711.58,194.28 713.81,193.65 715.36,193.22 717.59,192.60 719.03,192.08 721.26,191.35 722.70,190.95 724.93,190.33 726.48,189.89 728.71,189.27 730.15,188.86 732.38,188.24 733.82,187.84 736.05,187.22 737.61,186.78 739.83,186.16 741.28,185.76 743.50,185.13 744.95,184.73 747.17,184.11 748.73,183.67 750.95,183.05 752.40,182.65 754.62,181.95 756.18,181.47 758.40,180.79 759.85,180.33 762.07,179.71 763.52,179.31 765.74,178.69 767.30,178.25 769.52,177.63 770.97,177.22 773.19,176.60 774.64,176.20 776.86,175.58 778.42,175.14 780.64,174.37 782.09,174.00 784.31,173.30 785.76,172.91 787.98,172.30 789.54,171.84 791.77,171.22 793.21,170.82 795.44,170.19 796.88,169.79 799.11,169.07 800.66,168.66 802.89,167.95 804.33,167.57 806.56,166.73 808.78,166.14 810.23,165.76 812.45,165.16 814.01,164.78 816.23,163.97 817.68,163.58 819.90,162.98 821.46,162.57 823.68,161.68 825.13,161.29 827.35,160.59 828.80,160.18 831.02,159.56 832.58,159.13 834.80,158.50 836.25,158.10 838.47,157.28 839.92,156.88 842.14,156.26 843.70,155.82 845.93,155.20 847.37,154.80 849.60,153.99 851.04,153.44 853.27,152.77 854.82,152.61 857.05,151.99 858.49,151.59 860.72,150.93 862.16,150.54 864.39,149.79 865.94,149.23 868.17,148.21 869.61,147.81 871.84,147.19 873.28,146.60 875.51,146.04 877.06,145.66 879.29,145.11 880.73,144.66 882.96,144.32 884.52,143.69 886.74,143.01 888.19,142.62 890.41,141.98 891.86,141.57 894.08,140.78 895.64,140.38 897.86,139.79 899.31,139.30 901.53,138.53 902.98,138.11 905.20,137.50 906.76,136.80 908.98,136.18 910.43,135.77 912.65,135.15 914.10,134.75 916.32,133.98 917.88,133.59 920.10,133.03 921.55,132.59 923.77,131.81 925.22,131.42 927.44,130.76 929.00,130.22 931.22,129.60 932.67,129.10 934.89,128.36 936.34,127.95 938.56,127.33 940.12,126.89 942.35,126.27 943.79,125.87 946.02,125.11 947.57,124.43 949.80,123.62 951.24,123.21 953.47,122.59 954.91,122.19 957.14,121.25 958.69,120.77 960.92,120.35 962.36,119.91 964.59,119.23 966.03,118.84 968.26,118.16 969.81,117.72 972.04,117.10 973.48,116.70 975.71,116.07 977.15,115.56 979.38,114.98 980.94,114.58 983.16,113.87 984.61,113.27 986.83,112.60 988.28,112.32 990.50,111.65 992.06,111.23 994.28,110.56 995.73,110.15 997.95,109.53 999.40,109.13 1001.62,108.50 1003.18,108.07 1005.40,107.21 1006.85,106.81 1009.07,106.07 1010.52,105.89 1012.85,105.24 1014.30,104.83 1016.52,104.21 1017.97,103.81 1020.19,103.19 1021.75,102.75 1023.97,102.13 1025.42,101.73 1027.64,101.10 1029.09,100.70 1031.31,100.08 1032.87,99.64 1035.10,98.71 1036.54,98.28 1038.77,97.32 1040.21,96.93 1042.44,96.06 1043.99,95.38 1046.22,95.06 1047.66,94.69 1049.89,93.99 1051.33,93.59 1053.56,92.95 1055.11,92.51 1057.34,91.68 1058.78,91.31 1061.01,90.52 1062.45,90.16 1064.68,89.61 1066.23,89.14 1068.46,88.60 1069.90,88.01 1072.13,87.38 1073.57,86.98 1075.80,86.01 1077.36,85.48 1079.58,84.87 1081.03,84.38 1083.25,83.65 1084.81,82.87 1087.03,82.49 1088.48,82.10 1090.70,81.37 1092.15,81.01 1094.37,80.02 1095.93,79.54 1098.15,78.80 1099.60,78.43 1101.82,77.76 1103.27,77.36 1105.49,76.72 1107.05,76.29 1109.27,75.67 1110.72,75.26 1112.94,74.64 1114.39,74.24 1116.61,73.51 1118.17,72.84 1120.39,72.16 1121.84,71.70 1124.06,71.11 1125.51,70.73 1127.73,70.03 1129.29,69.60 1131.52,68.98 1132.96,68.57 1135.19,67.95 1136.63,67.55 1138.86,66.84 1140.41,66.35 1142.64,65.73 1144.08,65.33 1146.31,64.71 1147.86,64.27 1150.09,63.65 1151.53,63.18 1153.76,62.59 1155.20,62.21 1157.43,61.30 1158.98,60.92 1161.21,60.33 1162.65,59.83 1164.88,59.21 1166.32,58.80 1168.55,58.11 1170.11,57.70 1172.33,57.12 1173.78,56.62 1176.00,56.00" fill="none" stroke="#34d399" stroke-width="1.1" opacity="0.24"/><rect x="76" y="64" width="16" height="10" fill="#60a5fa" opacity="0.18"/><text x="98" y="74" fill="#d1d5db" font-size="12" font-family="system-ui, sans-serif">P05-P95</text><rect x="172" y="64" width="16" height="10" fill="#3b82f6" opacity="0.28"/><text x="194" y="74" fill="#d1d5db" font-size="12" font-family="system-ui, sans-serif">P25-P75</text><line x1="270" y1="69" x2="286" y2="69" stroke="#f8fafc" stroke-width="2"/><text x="292" y="74" fill="#d1d5db" font-size="12" font-family="system-ui, sans-serif">Median</text><line x1="354" y1="69" x2="370" y2="69" stroke="#f59e0b" stroke-width="2" stroke-dasharray="6 4"/><text x="376" y="74" fill="#d1d5db" font-size="12" font-family="system-ui, sans-serif">Mean</text></svg>